<?xml version="1.0" encoding="utf-8"?>
<!-- Generator: Adobe Illustrator 26.0.2, SVG Export Plug-In . SVG Version: 6.00 Build 0)  -->
<svg version="1.1" xmlns="http://www.w3.org/2000/svg" xmlns:xlink="http://www.w3.org/1999/xlink" x="0px" y="0px"
	 viewBox="0 0 40.28 40.24" style="enable-background:new 0 0 40.28 40.24;" xml:space="preserve">
<style type="text/css">
	.st0{fill:url(#SVGID_1_);}
	.st1{fill:url(#SVGID_00000101065399109568997320000000510327179471359407_);}
	.st2{fill:url(#SVGID_00000006689611654247849370000011550623225337624249_);}
	.st3{fill:url(#SVGID_00000114788396383700130860000016766620241883853737_);}
	.st4{fill:url(#SVGID_00000108299636498149925820000015073411894514757560_);}
	.st5{fill:url(#SVGID_00000036227564877558833270000014311672382729119676_);}
	.st6{fill:url(#SVGID_00000007394614814808986740000011328622403971443343_);}
	.st7{fill:url(#SVGID_00000144316112215939226650000002651800042976924040_);}
	.st8{fill:url(#SVGID_00000116955891124868919760000007423840657561470090_);}
	.st9{fill:url(#SVGID_00000008842854149933459210000011252878155774955193_);}
	.st10{fill:url(#SVGID_00000072995436484322150780000002507203019164105395_);}
	.st11{fill:url(#SVGID_00000106128366493450058280000000746203377499674277_);}
	.st12{fill:url(#SVGID_00000009554623429561556910000010914895211682018465_);}
	.st13{fill:url(#SVGID_00000025434804606269878500000017446583322048890277_);}
	.st14{fill:url(#SVGID_00000039829401673145591100000000835871481258044338_);}
	.st15{fill:url(#SVGID_00000092446616964518333920000012399453578343468463_);}
	.st16{fill:url(#SVGID_00000152265296434244788330000005244066175441667986_);}
	.st17{fill:#020218;}
	.st18{fill:#FFFFFF;}
	.st19{fill:url(#SVGID_00000121982508903400484170000010953276630582238387_);}
	.st20{fill:url(#SVGID_00000021805669116570435830000006907421390931394707_);}
	.st21{fill:url(#SVGID_00000038405268758572632010000004737582433587473563_);}
	.st22{fill:url(#SVGID_00000003087574331812933680000007722033304600873124_);}
	.st23{fill:url(#SVGID_00000030470338402601790430000003470238640980973240_);}
	.st24{fill:url(#SVGID_00000113333452838917204740000004624992979109164675_);}
	.st25{fill:url(#SVGID_00000175289929738872097970000005933168905054724759_);}
	.st26{fill:url(#SVGID_00000145747039446767064310000007047696331763576993_);}
	.st27{fill:url(#SVGID_00000047030986771898871950000000627055639758860735_);}
	.st28{fill:url(#SVGID_00000132777534521480232800000001987075475310372495_);}
	.st29{fill:url(#SVGID_00000181068358633800432020000000651745044034399875_);}
	.st30{fill:url(#SVGID_00000042017768528429964410000001500120613411497124_);}
	.st31{fill:url(#SVGID_00000132787686453650472610000012327906978892099232_);}
	.st32{fill:url(#SVGID_00000066478710671058049640000012281913373059983278_);}
	.st33{fill:url(#SVGID_00000008868460040031986930000017410418954287425949_);}
	.st34{fill:url(#SVGID_00000031172619124356754320000016197068220140959147_);}
	.st35{fill:url(#SVGID_00000067233371287097243150000016647730837442873743_);}
	.st36{fill:url(#SVGID_00000108270370379817223890000001413515582873983886_);}
	.st37{fill:url(#SVGID_00000042017669909571622030000011400570142411824050_);}
	.st38{fill:url(#SVGID_00000046327075724659049710000017097734268865496221_);}
	.st39{fill:url(#SVGID_00000061443590411839583770000004579236692166142870_);}
	.st40{fill:url(#SVGID_00000183962756959183576530000004199412667593264008_);}
	.st41{fill:url(#SVGID_00000178164669442620990170000016779769604946414502_);}
	.st42{fill:url(#SVGID_00000118396034605066787270000015431227281824127880_);}
	.st43{fill:url(#SVGID_00000060013240651786867330000016575360065033798538_);}
	.st44{fill:url(#SVGID_00000022529087683915949020000009302313532982611862_);}
	.st45{fill:url(#SVGID_00000008869789194744763880000012600662654311749306_);}
	.st46{fill:url(#SVGID_00000181049128008093506600000006179331696793995190_);}
	.st47{fill:url(#SVGID_00000048498485620798849230000009214860225277335712_);}
	.st48{fill:url(#SVGID_00000155142513409173672530000008768423323365262501_);}
	.st49{fill:url(#SVGID_00000110435493508066633310000013669459786774187670_);}
	.st50{fill:url(#SVGID_00000122699438817218563060000001703867459706569887_);}
	.st51{fill:url(#SVGID_00000113324864231571337840000014480928339070652851_);}
	.st52{fill:url(#SVGID_00000114033852516446088840000016963028276329262011_);}
</style>
<g id="BACKGROUND">
</g>
<g id="OBJECTS">
	<g id="CUSTOM-group">
		<g>
			<g>
				<g>
					<linearGradient id="SVGID_1_" gradientUnits="userSpaceOnUse" x1="-1.1533" y1="16.6614" x2="38.4529" y2="20.0143">
						<stop  offset="0" style="stop-color:#12CCFF"/>
						<stop  offset="1" style="stop-color:#6500C9"/>
					</linearGradient>
					<path class="st0" d="M39.69,22.6c-0.33,0-0.59-0.26-0.59-0.59v-3.78c0-0.33,0.26-0.59,0.59-0.59c0.33,0,0.59,0.26,0.59,0.59
						v3.78C40.28,22.34,40.01,22.6,39.69,22.6z"/>
				</g>
				<g>
					
						<linearGradient id="SVGID_00000119078651502370260040000016068935634709686145_" gradientUnits="userSpaceOnUse" x1="-1.1706" y1="16.8666" x2="38.4355" y2="20.2195">
						<stop  offset="0" style="stop-color:#12CCFF"/>
						<stop  offset="1" style="stop-color:#6500C9"/>
					</linearGradient>
					<path style="fill:url(#SVGID_00000119078651502370260040000016068935634709686145_);" d="M37.25,26.44
						c-0.33,0-0.59-0.26-0.59-0.59V14.38c0-0.33,0.26-0.59,0.59-0.59c0.33,0,0.59,0.26,0.59,0.59v11.47
						C37.84,26.18,37.57,26.44,37.25,26.44L37.25,26.44z"/>
				</g>
				<g>
					
						<linearGradient id="SVGID_00000105397178281806151550000010090645501074952875_" gradientUnits="userSpaceOnUse" x1="-1.188" y1="17.0718" x2="38.4182" y2="20.4247">
						<stop  offset="0" style="stop-color:#12CCFF"/>
						<stop  offset="1" style="stop-color:#6500C9"/>
					</linearGradient>
					<path style="fill:url(#SVGID_00000105397178281806151550000010090645501074952875_);" d="M34.81,25.16
						c-0.33,0-0.59-0.26-0.59-0.59v-8.9c0-0.33,0.26-0.59,0.59-0.59c0.33,0,0.59,0.26,0.59,0.59v8.9
						C35.39,24.9,35.13,25.16,34.81,25.16z"/>
				</g>
				<g>
					
						<linearGradient id="SVGID_00000060741179114691392150000003033796356373227690_" gradientUnits="userSpaceOnUse" x1="-1.2054" y1="17.2769" x2="38.4008" y2="20.6298">
						<stop  offset="0" style="stop-color:#12CCFF"/>
						<stop  offset="1" style="stop-color:#6500C9"/>
					</linearGradient>
					<path style="fill:url(#SVGID_00000060741179114691392150000003033796356373227690_);" d="M32.36,29.12
						c-0.33,0-0.59-0.26-0.59-0.59V11.71c0-0.33,0.26-0.59,0.59-0.59c0.33,0,0.59,0.26,0.59,0.59v16.82
						C32.95,28.85,32.69,29.12,32.36,29.12L32.36,29.12z"/>
				</g>
				<g>
					
						<linearGradient id="SVGID_00000163755154071784163520000016466951452074691996_" gradientUnits="userSpaceOnUse" x1="-1.2227" y1="17.4821" x2="38.3834" y2="20.835">
						<stop  offset="0" style="stop-color:#12CCFF"/>
						<stop  offset="1" style="stop-color:#6500C9"/>
					</linearGradient>
					<path style="fill:url(#SVGID_00000163755154071784163520000016466951452074691996_);" d="M29.92,31.5
						c-0.33,0-0.59-0.26-0.59-0.59V9.32c0-0.33,0.26-0.59,0.59-0.59c0.33,0,0.59,0.26,0.59,0.59v21.59
						C30.51,31.24,30.25,31.5,29.92,31.5z"/>
				</g>
				<g>
					
						<linearGradient id="SVGID_00000144298061829077337970000013607551241569497018_" gradientUnits="userSpaceOnUse" x1="-1.2401" y1="17.6873" x2="38.3661" y2="21.0402">
						<stop  offset="0" style="stop-color:#12CCFF"/>
						<stop  offset="1" style="stop-color:#6500C9"/>
					</linearGradient>
					<path style="fill:url(#SVGID_00000144298061829077337970000013607551241569497018_);" d="M27.48,36.66
						c-0.33,0-0.59-0.26-0.59-0.59V4.17c0-0.33,0.26-0.59,0.59-0.59s0.59,0.26,0.59,0.59v31.91C28.07,36.4,27.81,36.66,27.48,36.66z
						"/>
				</g>
				<g>
					
						<linearGradient id="SVGID_00000063613652017653751260000016564409885291064511_" gradientUnits="userSpaceOnUse" x1="-1.2575" y1="17.8925" x2="38.3487" y2="21.2454">
						<stop  offset="0" style="stop-color:#12CCFF"/>
						<stop  offset="1" style="stop-color:#6500C9"/>
					</linearGradient>
					<path style="fill:url(#SVGID_00000063613652017653751260000016564409885291064511_);" d="M25.04,35.05
						c-0.33,0-0.59-0.26-0.59-0.59V5.78c0-0.33,0.26-0.59,0.59-0.59c0.33,0,0.59,0.26,0.59,0.59v28.69
						C25.63,34.79,25.37,35.05,25.04,35.05z"/>
				</g>
				<g>
					
						<linearGradient id="SVGID_00000057127329837412597090000006735794241868487344_" gradientUnits="userSpaceOnUse" x1="-1.2749" y1="18.0977" x2="38.3313" y2="21.4506">
						<stop  offset="0" style="stop-color:#12CCFF"/>
						<stop  offset="1" style="stop-color:#6500C9"/>
					</linearGradient>
					<path style="fill:url(#SVGID_00000057127329837412597090000006735794241868487344_);" d="M22.6,38.39
						c-0.33,0-0.59-0.26-0.59-0.59V2.44c0-0.33,0.26-0.59,0.59-0.59c0.33,0,0.59,0.26,0.59,0.59V37.8
						C23.19,38.13,22.92,38.39,22.6,38.39z"/>
				</g>
			</g>
			<g>
				
					<linearGradient id="SVGID_00000145024651669104580240000004788281499997650306_" gradientUnits="userSpaceOnUse" x1="-1.4315" y1="19.9477" x2="38.1747" y2="23.3006">
					<stop  offset="0" style="stop-color:#12CCFF"/>
					<stop  offset="1" style="stop-color:#6500C9"/>
				</linearGradient>
				<path style="fill:url(#SVGID_00000145024651669104580240000004788281499997650306_);" d="M0.59,22.6C0.26,22.6,0,22.34,0,22.01
					v-3.78c0-0.33,0.26-0.59,0.59-0.59s0.59,0.26,0.59,0.59v3.78C1.18,22.34,0.92,22.6,0.59,22.6z"/>
			</g>
			<g>
				
					<linearGradient id="SVGID_00000034769072827480664130000012221141374728049340_" gradientUnits="userSpaceOnUse" x1="-1.4141" y1="19.7425" x2="38.1921" y2="23.0954">
					<stop  offset="0" style="stop-color:#12CCFF"/>
					<stop  offset="1" style="stop-color:#6500C9"/>
				</linearGradient>
				<path style="fill:url(#SVGID_00000034769072827480664130000012221141374728049340_);" d="M3.03,26.44
					c-0.33,0-0.59-0.26-0.59-0.59V14.38c0-0.33,0.26-0.59,0.59-0.59c0.33,0,0.59,0.26,0.59,0.59v11.47
					C3.62,26.18,3.36,26.44,3.03,26.44L3.03,26.44z"/>
			</g>
			<g>
				
					<linearGradient id="SVGID_00000065035105653882845880000006652135309590204064_" gradientUnits="userSpaceOnUse" x1="-1.3967" y1="19.5373" x2="38.2094" y2="22.8902">
					<stop  offset="0" style="stop-color:#12CCFF"/>
					<stop  offset="1" style="stop-color:#6500C9"/>
				</linearGradient>
				<path style="fill:url(#SVGID_00000065035105653882845880000006652135309590204064_);" d="M5.47,25.16
					c-0.33,0-0.59-0.26-0.59-0.59v-8.9c0-0.33,0.26-0.59,0.59-0.59c0.33,0,0.59,0.26,0.59,0.59v8.9C6.06,24.9,5.8,25.16,5.47,25.16z
					"/>
			</g>
			<g>
				
					<linearGradient id="SVGID_00000101062784430808860730000012672675115923288731_" gradientUnits="userSpaceOnUse" x1="-1.3794" y1="19.3321" x2="38.2268" y2="22.685">
					<stop  offset="0" style="stop-color:#12CCFF"/>
					<stop  offset="1" style="stop-color:#6500C9"/>
				</linearGradient>
				<path style="fill:url(#SVGID_00000101062784430808860730000012672675115923288731_);" d="M7.91,29.12
					c-0.33,0-0.59-0.26-0.59-0.59V11.71c0-0.33,0.26-0.59,0.59-0.59c0.33,0,0.59,0.26,0.59,0.59v16.82
					C8.5,28.85,8.24,29.12,7.91,29.12L7.91,29.12z"/>
			</g>
			<g>
				
					<linearGradient id="SVGID_00000143577597137952336510000001065807066399488163_" gradientUnits="userSpaceOnUse" x1="-1.362" y1="19.127" x2="38.2442" y2="22.4799">
					<stop  offset="0" style="stop-color:#12CCFF"/>
					<stop  offset="1" style="stop-color:#6500C9"/>
				</linearGradient>
				<path style="fill:url(#SVGID_00000143577597137952336510000001065807066399488163_);" d="M10.35,31.5
					c-0.33,0-0.59-0.26-0.59-0.59V9.32c0-0.33,0.26-0.59,0.59-0.59c0.33,0,0.59,0.26,0.59,0.59v21.59
					C10.94,31.24,10.68,31.5,10.35,31.5z"/>
			</g>
			<g>
				
					<linearGradient id="SVGID_00000124152063104883971310000010502029116641420191_" gradientUnits="userSpaceOnUse" x1="-1.3446" y1="18.9218" x2="38.2616" y2="22.2747">
					<stop  offset="0" style="stop-color:#12CCFF"/>
					<stop  offset="1" style="stop-color:#6500C9"/>
				</linearGradient>
				<path style="fill:url(#SVGID_00000124152063104883971310000010502029116641420191_);" d="M12.8,36.66
					c-0.33,0-0.59-0.26-0.59-0.59V4.17c0-0.33,0.26-0.59,0.59-0.59c0.33,0,0.59,0.26,0.59,0.59v31.91
					C13.38,36.4,13.12,36.66,12.8,36.66z"/>
			</g>
			<g>
				
					<linearGradient id="SVGID_00000093165028973113938610000010985536739621646511_" gradientUnits="userSpaceOnUse" x1="-1.3272" y1="18.7166" x2="38.2789" y2="22.0695">
					<stop  offset="0" style="stop-color:#12CCFF"/>
					<stop  offset="1" style="stop-color:#6500C9"/>
				</linearGradient>
				<path style="fill:url(#SVGID_00000093165028973113938610000010985536739621646511_);" d="M15.24,35.05
					c-0.33,0-0.59-0.26-0.59-0.59V5.78c0-0.33,0.26-0.59,0.59-0.59c0.33,0,0.59,0.26,0.59,0.59v28.69
					C15.83,34.79,15.56,35.05,15.24,35.05z"/>
			</g>
			<g>
				
					<linearGradient id="SVGID_00000039102125132786807480000011155983735954328990_" gradientUnits="userSpaceOnUse" x1="-1.3099" y1="18.5114" x2="38.2963" y2="21.8643">
					<stop  offset="0" style="stop-color:#12CCFF"/>
					<stop  offset="1" style="stop-color:#6500C9"/>
				</linearGradient>
				<path style="fill:url(#SVGID_00000039102125132786807480000011155983735954328990_);" d="M17.68,38.39
					c-0.33,0-0.59-0.26-0.59-0.59V2.44c0-0.33,0.26-0.59,0.59-0.59c0.33,0,0.59,0.26,0.59,0.59V37.8
					C18.27,38.13,18,38.39,17.68,38.39z"/>
			</g>
			<g>
				
					<linearGradient id="SVGID_00000149378812026206316200000005673662787298300093_" gradientUnits="userSpaceOnUse" x1="-1.2925" y1="18.3062" x2="38.3137" y2="21.6591">
					<stop  offset="0" style="stop-color:#12CCFF"/>
					<stop  offset="1" style="stop-color:#6500C9"/>
				</linearGradient>
				<path style="fill:url(#SVGID_00000149378812026206316200000005673662787298300093_);" d="M20.12,40.24
					c-0.33,0-0.59-0.26-0.59-0.59V0.59c0-0.33,0.26-0.59,0.59-0.59c0.33,0,0.59,0.26,0.59,0.59v39.06
					C20.71,39.97,20.44,40.24,20.12,40.24z"/>
			</g>
		</g>
		<g>
			
				<ellipse transform="matrix(0.9999 -0.0132 0.0132 0.9999 -0.2642 0.2682)" class="st17" cx="20.16" cy="20.12" rx="10.61" ry="10.61"/>
			<g>
				
					<ellipse transform="matrix(0.1598 -0.9872 0.9872 0.1598 -9.7896 36.5794)" class="st18" cx="16.59" cy="24.04" rx="1.88" ry="1.88"/>
				
					<ellipse transform="matrix(0.2244 -0.9745 0.9745 0.2244 -3.4463 39.23)" class="st18" cx="22.92" cy="21.78" rx="1.88" ry="1.88"/>
				<path class="st18" d="M24.8,14.14c-0.04-0.37-0.43-0.61-0.78-0.49l-6.33,2.26c-0.23,0.08-0.39,0.31-0.39,0.56v2.03v5.54
					c0,0.33,0.26,0.59,0.59,0.59c0.33,0,0.59-0.26,0.59-0.59v-5.12l5.15-1.84v4.7c0,0.33,0.26,0.59,0.59,0.59
					c0.33,0,0.59-0.26,0.59-0.59v-5.54v-2.03C24.8,14.19,24.8,14.16,24.8,14.14L24.8,14.14z M18.47,17.67v-0.78l5.15-1.84v0.78
					L18.47,17.67z"/>
				<path class="st18" d="M24.17,16.1l-6.33,2.31v-2.05l6.33-2.31V16.1z"/>
			</g>
		</g>
	</g>
</g>
</svg>
