<?xml version="1.0" encoding="utf-8"?>
<!-- Generator: Adobe Illustrator 26.0.2, SVG Export Plug-In . SVG Version: 6.00 Build 0)  -->
<svg version="1.1" xmlns="http://www.w3.org/2000/svg" xmlns:xlink="http://www.w3.org/1999/xlink" x="0px" y="0px"
	 viewBox="0 0 160.39 50.1" style="enable-background:new 0 0 160.39 50.1;" xml:space="preserve">
<style type="text/css">
	.st0{fill:url(#SVGID_1_);}
	.st1{fill:url(#SVGID_00000064329842629867022230000010092204071234661546_);}
	.st2{fill:url(#SVGID_00000110450133795727770610000014355875150754495645_);}
	.st3{fill:url(#SVGID_00000074439975464834685570000008241082990271233665_);}
	.st4{fill:url(#SVGID_00000165936653411043874450000015695770655770609035_);}
	.st5{fill:url(#SVGID_00000040557240856762489200000017710780233995032200_);}
	.st6{fill:url(#SVGID_00000109741024955337483470000010482846746929972371_);}
	.st7{fill:url(#SVGID_00000051381194590498752130000006814457470055049141_);}
	.st8{fill:url(#SVGID_00000047034170809011598650000006409659935092648846_);}
	.st9{fill:url(#SVGID_00000073721331834842996600000014358991795700258949_);}
	.st10{fill:url(#SVGID_00000164486286747829803760000003829860063272757661_);}
	.st11{fill:url(#SVGID_00000112624256721883720040000008344748267204475049_);}
	.st12{fill:url(#SVGID_00000000911831062962554130000004040658291491276988_);}
	.st13{fill:url(#SVGID_00000173123989599000575720000017485428667209201845_);}
	.st14{fill:url(#SVGID_00000111883979036952706950000001830373282384822178_);}
	.st15{fill:url(#SVGID_00000073712066653875267870000008856751135555092139_);}
	.st16{fill:url(#SVGID_00000016075446641227661260000006473960782397813404_);}
	.st17{fill:#020218;}
	.st18{fill:#FFFFFF;}
	.st19{fill:url(#SVGID_00000060023298574467823440000009299076643828113076_);}
	.st20{fill:url(#SVGID_00000040562792001921058480000007316500374517865129_);}
	.st21{fill:url(#SVGID_00000166642436410034534290000012178813835330379664_);}
	.st22{fill:url(#SVGID_00000158024557487716847330000002301583037704340147_);}
	.st23{fill:url(#SVGID_00000066495048097296245390000008300209290280764094_);}
	.st24{fill:url(#SVGID_00000096032235581805559200000008485188566211687359_);}
	.st25{fill:url(#SVGID_00000020359117445191777150000017593658845398852769_);}
	.st26{fill:url(#SVGID_00000034810091340261520300000006750911281999364508_);}
	.st27{fill:url(#SVGID_00000028286110791379713940000002366079146655428793_);}
	.st28{fill:url(#SVGID_00000063597731465157971730000008351670251035851431_);}
	.st29{fill:url(#SVGID_00000034080603918250549440000007449347058185727618_);}
	.st30{fill:url(#SVGID_00000111902004726795114180000012532045681893588610_);}
	.st31{fill:url(#SVGID_00000109737588278287992930000017473618848040706946_);}
	.st32{fill:url(#SVGID_00000107588592462201757120000016666301130918949299_);}
	.st33{fill:url(#SVGID_00000158708452129121993230000004749150399672369316_);}
	.st34{fill:url(#SVGID_00000170278289050219967690000001604758628461654449_);}
	.st35{fill:url(#SVGID_00000000187845611073535360000018344327841506917040_);}
	.st36{fill:url(#SVGID_00000161614264980511376680000015594879192256657543_);}
	.st37{fill:url(#SVGID_00000180357839097150810420000010940945732431700374_);}
	.st38{fill:url(#SVGID_00000015350308185158498450000017806889996818432650_);}
	.st39{fill:url(#SVGID_00000049933002259113714220000006987097160380424122_);}
	.st40{fill:url(#SVGID_00000011714894432867481890000000174542635048734085_);}
	.st41{fill:url(#SVGID_00000005262481684141640220000015390474691950432664_);}
	.st42{fill:url(#SVGID_00000047763473852813784030000006362255046663598254_);}
	.st43{fill:url(#SVGID_00000178186568209245125060000012281578017787256761_);}
	.st44{fill:url(#SVGID_00000100372583605846340450000014053762379204642728_);}
	.st45{fill:url(#SVGID_00000155141937450250104600000009083800760619265681_);}
	.st46{fill:url(#SVGID_00000139279242993277763740000017064416394068473235_);}
	.st47{fill:url(#SVGID_00000026147664122071739500000009008019007149321641_);}
	.st48{fill:url(#SVGID_00000034065654608116842380000006282591089124296087_);}
	.st49{fill:url(#SVGID_00000106105692984572784120000014638311513096769166_);}
	.st50{fill:url(#SVGID_00000130617567535944375480000007681786378573119654_);}
	.st51{fill:url(#SVGID_00000114042333448180805550000012274944523531192962_);}
	.st52{fill:url(#SVGID_00000139981269534077173410000010833677395684364726_);}
</style>
<g id="BACKGROUND">
</g>
<g id="OBJECTS">
	<g id="CUSTOM-group_00000121975402647057863930000006419530150067606932_">
		<g>
			<g>
				<g>
					<linearGradient id="SVGID_1_" gradientUnits="userSpaceOnUse" x1="-1.4358" y1="20.7436" x2="47.8743" y2="24.918">
						<stop  offset="0" style="stop-color:#12CCFF"/>
						<stop  offset="1" style="stop-color:#6500C9"/>
					</linearGradient>
					<path class="st0" d="M49.41,28.14c-0.41,0-0.73-0.33-0.73-0.73v-4.71c0-0.41,0.33-0.73,0.73-0.73c0.41,0,0.73,0.33,0.73,0.73
						v4.71C50.15,27.81,49.82,28.14,49.41,28.14z"/>
				</g>
				<g>
					
						<linearGradient id="SVGID_00000091013394536347075330000003838616608007996565_" gradientUnits="userSpaceOnUse" x1="-1.4574" y1="20.9991" x2="47.8527" y2="25.1735">
						<stop  offset="0" style="stop-color:#12CCFF"/>
						<stop  offset="1" style="stop-color:#6500C9"/>
					</linearGradient>
					<path style="fill:url(#SVGID_00000091013394536347075330000003838616608007996565_);" d="M46.37,32.92
						c-0.41,0-0.73-0.33-0.73-0.73V17.91c0-0.41,0.33-0.73,0.73-0.73c0.41,0,0.73,0.33,0.73,0.73v14.28
						C47.11,32.59,46.78,32.92,46.37,32.92L46.37,32.92z"/>
				</g>
				<g>
					
						<linearGradient id="SVGID_00000152240523351794158480000014280086406662657431_" gradientUnits="userSpaceOnUse" x1="-1.4791" y1="21.2545" x2="47.8311" y2="25.4289">
						<stop  offset="0" style="stop-color:#12CCFF"/>
						<stop  offset="1" style="stop-color:#6500C9"/>
					</linearGradient>
					<path style="fill:url(#SVGID_00000152240523351794158480000014280086406662657431_);" d="M43.33,31.33
						c-0.41,0-0.73-0.33-0.73-0.73V19.51c0-0.41,0.33-0.73,0.73-0.73c0.41,0,0.73,0.33,0.73,0.73v11.09
						C44.07,31,43.74,31.33,43.33,31.33z"/>
				</g>
				<g>
					
						<linearGradient id="SVGID_00000022542610704298819420000000798327181159675025_" gradientUnits="userSpaceOnUse" x1="-1.5007" y1="21.51" x2="47.8094" y2="25.6844">
						<stop  offset="0" style="stop-color:#12CCFF"/>
						<stop  offset="1" style="stop-color:#6500C9"/>
					</linearGradient>
					<path style="fill:url(#SVGID_00000022542610704298819420000000798327181159675025_);" d="M40.29,36.25
						c-0.41,0-0.73-0.33-0.73-0.73V14.58c0-0.41,0.33-0.73,0.73-0.73c0.41,0,0.73,0.33,0.73,0.73v20.94
						C41.03,35.92,40.7,36.25,40.29,36.25L40.29,36.25z"/>
				</g>
				<g>
					
						<linearGradient id="SVGID_00000058574728845141664530000001485712325347602569_" gradientUnits="userSpaceOnUse" x1="-1.5223" y1="21.7655" x2="47.7878" y2="25.9399">
						<stop  offset="0" style="stop-color:#12CCFF"/>
						<stop  offset="1" style="stop-color:#6500C9"/>
					</linearGradient>
					<path style="fill:url(#SVGID_00000058574728845141664530000001485712325347602569_);" d="M37.25,39.22
						c-0.41,0-0.73-0.33-0.73-0.73V11.61c0-0.41,0.33-0.73,0.73-0.73c0.41,0,0.73,0.33,0.73,0.73v26.88
						C37.99,38.89,37.66,39.22,37.25,39.22z"/>
				</g>
				<g>
					
						<linearGradient id="SVGID_00000062873121803989180150000004900212448823237797_" gradientUnits="userSpaceOnUse" x1="-1.544" y1="22.0209" x2="47.7662" y2="26.1953">
						<stop  offset="0" style="stop-color:#12CCFF"/>
						<stop  offset="1" style="stop-color:#6500C9"/>
					</linearGradient>
					<path style="fill:url(#SVGID_00000062873121803989180150000004900212448823237797_);" d="M34.21,45.64
						c-0.41,0-0.73-0.33-0.73-0.73V5.19c0-0.41,0.33-0.73,0.73-0.73s0.73,0.33,0.73,0.73v39.72C34.95,45.32,34.62,45.64,34.21,45.64
						z"/>
				</g>
				<g>
					
						<linearGradient id="SVGID_00000080912742087198127070000016005705204393231802_" gradientUnits="userSpaceOnUse" x1="-1.5656" y1="22.2764" x2="47.7446" y2="26.4508">
						<stop  offset="0" style="stop-color:#12CCFF"/>
						<stop  offset="1" style="stop-color:#6500C9"/>
					</linearGradient>
					<path style="fill:url(#SVGID_00000080912742087198127070000016005705204393231802_);" d="M31.18,43.64
						c-0.41,0-0.73-0.33-0.73-0.73V7.19c0-0.41,0.33-0.73,0.73-0.73c0.41,0,0.73,0.33,0.73,0.73V42.9
						C31.91,43.31,31.58,43.64,31.18,43.64z"/>
				</g>
				<g>
					
						<linearGradient id="SVGID_00000042699533215895017450000003266120128915712420_" gradientUnits="userSpaceOnUse" x1="-1.5872" y1="22.5318" x2="47.7229" y2="26.7062">
						<stop  offset="0" style="stop-color:#12CCFF"/>
						<stop  offset="1" style="stop-color:#6500C9"/>
					</linearGradient>
					<path style="fill:url(#SVGID_00000042699533215895017450000003266120128915712420_);" d="M28.14,47.8
						c-0.41,0-0.73-0.33-0.73-0.73V3.03c0-0.41,0.33-0.73,0.73-0.73c0.41,0,0.73,0.33,0.73,0.73v44.03
						C28.87,47.47,28.54,47.8,28.14,47.8z"/>
				</g>
			</g>
			<g>
				
					<linearGradient id="SVGID_00000091012210343911239100000013438037149319393422_" gradientUnits="userSpaceOnUse" x1="-1.7822" y1="24.8351" x2="47.5279" y2="29.0095">
					<stop  offset="0" style="stop-color:#12CCFF"/>
					<stop  offset="1" style="stop-color:#6500C9"/>
				</linearGradient>
				<path style="fill:url(#SVGID_00000091012210343911239100000013438037149319393422_);" d="M0.73,28.14C0.33,28.14,0,27.81,0,27.4
					v-4.71c0-0.41,0.33-0.73,0.73-0.73s0.73,0.33,0.73,0.73v4.71C1.47,27.81,1.14,28.14,0.73,28.14z"/>
			</g>
			<g>
				
					<linearGradient id="SVGID_00000067235231694387866690000008592700477450530232_" gradientUnits="userSpaceOnUse" x1="-1.7606" y1="24.5797" x2="47.5496" y2="28.7541">
					<stop  offset="0" style="stop-color:#12CCFF"/>
					<stop  offset="1" style="stop-color:#6500C9"/>
				</linearGradient>
				<path style="fill:url(#SVGID_00000067235231694387866690000008592700477450530232_);" d="M3.77,32.92
					c-0.41,0-0.73-0.33-0.73-0.73V17.91c0-0.41,0.33-0.73,0.73-0.73c0.41,0,0.73,0.33,0.73,0.73v14.28
					C4.51,32.59,4.18,32.92,3.77,32.92L3.77,32.92z"/>
			</g>
			<g>
				
					<linearGradient id="SVGID_00000149370386608031618770000004989034608513904793_" gradientUnits="userSpaceOnUse" x1="-1.7389" y1="24.3242" x2="47.5712" y2="28.4986">
					<stop  offset="0" style="stop-color:#12CCFF"/>
					<stop  offset="1" style="stop-color:#6500C9"/>
				</linearGradient>
				<path style="fill:url(#SVGID_00000149370386608031618770000004989034608513904793_);" d="M6.81,31.33
					c-0.41,0-0.73-0.33-0.73-0.73V19.51c0-0.41,0.33-0.73,0.73-0.73c0.41,0,0.73,0.33,0.73,0.73v11.09
					C7.55,31,7.22,31.33,6.81,31.33z"/>
			</g>
			<g>
				
					<linearGradient id="SVGID_00000036216996681908371490000007036969868013587639_" gradientUnits="userSpaceOnUse" x1="-1.7173" y1="24.0687" x2="47.5928" y2="28.2431">
					<stop  offset="0" style="stop-color:#12CCFF"/>
					<stop  offset="1" style="stop-color:#6500C9"/>
				</linearGradient>
				<path style="fill:url(#SVGID_00000036216996681908371490000007036969868013587639_);" d="M9.85,36.25
					c-0.41,0-0.73-0.33-0.73-0.73V14.58c0-0.41,0.33-0.73,0.73-0.73c0.41,0,0.73,0.33,0.73,0.73v20.94
					C10.59,35.92,10.26,36.25,9.85,36.25L9.85,36.25z"/>
			</g>
			<g>
				
					<linearGradient id="SVGID_00000003792793490598720590000008431585613057961135_" gradientUnits="userSpaceOnUse" x1="-1.6957" y1="23.8133" x2="47.6145" y2="27.9877">
					<stop  offset="0" style="stop-color:#12CCFF"/>
					<stop  offset="1" style="stop-color:#6500C9"/>
				</linearGradient>
				<path style="fill:url(#SVGID_00000003792793490598720590000008431585613057961135_);" d="M12.89,39.22
					c-0.41,0-0.73-0.33-0.73-0.73V11.61c0-0.41,0.33-0.73,0.73-0.73c0.41,0,0.73,0.33,0.73,0.73v26.88
					C13.62,38.89,13.3,39.22,12.89,39.22z"/>
			</g>
			<g>
				
					<linearGradient id="SVGID_00000023977402830963339970000010712588993345115062_" gradientUnits="userSpaceOnUse" x1="-1.6741" y1="23.5578" x2="47.6361" y2="27.7322">
					<stop  offset="0" style="stop-color:#12CCFF"/>
					<stop  offset="1" style="stop-color:#6500C9"/>
				</linearGradient>
				<path style="fill:url(#SVGID_00000023977402830963339970000010712588993345115062_);" d="M15.93,45.64
					c-0.41,0-0.73-0.33-0.73-0.73V5.19c0-0.41,0.33-0.73,0.73-0.73c0.41,0,0.73,0.33,0.73,0.73v39.72
					C16.66,45.32,16.34,45.64,15.93,45.64z"/>
			</g>
			<g>
				
					<linearGradient id="SVGID_00000129198817491271197590000000000753560847126931_" gradientUnits="userSpaceOnUse" x1="-1.6524" y1="23.3023" x2="47.6577" y2="27.4768">
					<stop  offset="0" style="stop-color:#12CCFF"/>
					<stop  offset="1" style="stop-color:#6500C9"/>
				</linearGradient>
				<path style="fill:url(#SVGID_00000129198817491271197590000000000753560847126931_);" d="M18.97,43.64
					c-0.41,0-0.73-0.33-0.73-0.73V7.19c0-0.41,0.33-0.73,0.73-0.73c0.41,0,0.73,0.33,0.73,0.73V42.9
					C19.7,43.31,19.37,43.64,18.97,43.64z"/>
			</g>
			<g>
				
					<linearGradient id="SVGID_00000148635837350594301030000014468635009331724177_" gradientUnits="userSpaceOnUse" x1="-1.6308" y1="23.0469" x2="47.6793" y2="27.2213">
					<stop  offset="0" style="stop-color:#12CCFF"/>
					<stop  offset="1" style="stop-color:#6500C9"/>
				</linearGradient>
				<path style="fill:url(#SVGID_00000148635837350594301030000014468635009331724177_);" d="M22.01,47.8
					c-0.41,0-0.73-0.33-0.73-0.73V3.03c0-0.41,0.33-0.73,0.73-0.73c0.41,0,0.73,0.33,0.73,0.73v44.03
					C22.74,47.47,22.41,47.8,22.01,47.8z"/>
			</g>
			<g>
				
					<linearGradient id="SVGID_00000089555730343974082320000004130620922086090146_" gradientUnits="userSpaceOnUse" x1="-1.6092" y1="22.7914" x2="47.701" y2="26.9658">
					<stop  offset="0" style="stop-color:#12CCFF"/>
					<stop  offset="1" style="stop-color:#6500C9"/>
				</linearGradient>
				<path style="fill:url(#SVGID_00000089555730343974082320000004130620922086090146_);" d="M25.05,50.1
					c-0.41,0-0.73-0.33-0.73-0.73V0.73c0-0.41,0.33-0.73,0.73-0.73c0.41,0,0.73,0.33,0.73,0.73v48.63
					C25.78,49.77,25.45,50.1,25.05,50.1z"/>
			</g>
		</g>
		<g>
			
				<ellipse transform="matrix(0.9999 -0.0132 0.0132 0.9999 -0.3289 0.334)" class="st17" cx="25.1" cy="25.05" rx="13.21" ry="13.21"/>
			<g>
				
					<ellipse transform="matrix(0.1598 -0.9872 0.9872 0.1598 -12.1881 45.5418)" class="st18" cx="20.66" cy="29.93" rx="2.34" ry="2.34"/>
				
					<ellipse transform="matrix(0.2244 -0.9745 0.9745 0.2244 -4.2907 48.8418)" class="st18" cx="28.54" cy="27.12" rx="2.34" ry="2.34"/>
				<path class="st18" d="M30.87,17.61c-0.05-0.46-0.54-0.76-0.98-0.61l-7.88,2.81c-0.29,0.1-0.49,0.39-0.49,0.69v2.53v6.89
					c0,0.41,0.33,0.73,0.73,0.73c0.41,0,0.73-0.33,0.73-0.73v-6.38l6.41-2.29v5.85c0,0.41,0.33,0.73,0.73,0.73
					c0.41,0,0.73-0.33,0.73-0.73v-6.89v-2.53C30.88,17.66,30.87,17.63,30.87,17.61L30.87,17.61z M23,21.99v-0.97l6.41-2.29v0.97
					L23,21.99z"/>
				<path class="st18" d="M30.09,20.05l-7.88,2.87v-2.56l7.88-2.87V20.05z"/>
			</g>
		</g>
	</g>
	<g>
		<g>
			<g>
				<path class="st18" d="M61.68,12.15c0-0.56,0.42-0.98,0.98-0.98h6.19c2.59,0,4.77,2.15,4.77,4.77c0,1.34-0.64,2.56-1.62,3.35
					c1.73,0.58,3.01,2.29,3.01,4.26c0,2.65-2.17,4.77-4.79,4.77h-7.55c-0.56,0-0.98-0.42-0.98-0.95V12.15z M63.6,13.1v5.69h5.24
					c1.56,0,2.84-1.28,2.84-2.84s-1.31-2.84-2.84-2.84H63.6z M63.6,20.71v5.69h6.61c1.56,0,2.84-1.25,2.84-2.84
					c0-1.56-1.28-2.84-2.84-2.84H63.6z"/>
				<path class="st18" d="M83.17,15.58c3.32,0,6.08,2.56,6.3,5.83c0.17,0.72-0.11,1.23-0.98,1.23h-9.84
					c0.28,2.23,2.2,3.96,4.52,3.96c1.25,0,2.42-0.53,3.26-1.37c0.2-0.17,0.42-0.25,0.61-0.25c0.25,0,0.47,0.08,0.61,0.25
					c0.36,0.36,0.36,0.89,0,1.25c-1.14,1.14-2.73,1.87-4.49,1.87c-3.51,0-6.38-2.87-6.38-6.38C76.79,18.45,79.66,15.58,83.17,15.58z
					 M83.17,17.33c-2.31,0-4.24,1.76-4.52,3.99h9C87.44,19.09,85.49,17.33,83.17,17.33z"/>
				<path class="st18" d="M91.19,21.96c0-3.54,2.87-6.38,6.38-6.38c3.51,0,6.38,2.84,6.38,6.38v5.49c0,0.5-0.39,0.89-0.86,0.89
					c-0.5,0-0.89-0.39-0.89-0.89v-1.09c-1.17,1.23-2.82,1.98-4.63,1.98C94.06,28.34,91.19,25.5,91.19,21.96z M92.95,21.96
					c0,2.56,2.06,4.63,4.63,4.63s4.63-2.06,4.63-4.63c0-2.59-2.06-4.66-4.63-4.66S92.95,19.37,92.95,21.96z"/>
				<path class="st18" d="M108.75,11.17c0.5,0,0.89,0.39,0.89,0.86v3.54h2.26c0.5,0,0.89,0.36,0.89,0.86c0,0.47-0.39,0.86-0.89,0.86
					h-2.26v10.17c0,0.5-0.39,0.89-0.89,0.89c-0.47,0-0.89-0.39-0.89-0.89V17.31h-2.26c-0.47,0-0.86-0.39-0.86-0.86
					c0-0.5,0.39-0.86,0.86-0.86h2.26v-3.54C107.86,11.56,108.27,11.17,108.75,11.17z"/>
				<path class="st18" d="M125.61,18.81v-6.63c0-0.56,0.45-1,0.98-1c0.5,0,0.95,0.45,0.95,1V27.4c0,0.5-0.45,0.95-0.95,0.95
					c-0.53,0-0.98-0.45-0.98-0.95v-6.69h-8.89v6.69c0,0.5-0.45,0.95-0.95,0.95c-0.53,0-0.95-0.45-0.95-0.95V12.18
					c0-0.56,0.42-1,0.95-1c0.5,0,0.95,0.45,0.95,1v6.63H125.61z"/>
				<path class="st18" d="M131.69,11.98c0.61,0,1.12,0.5,1.12,1.14c0,0.61-0.5,1.09-1.12,1.09s-1.12-0.47-1.12-1.09
					C130.57,12.48,131.07,11.98,131.69,11.98z M131.69,15.58c0.47,0,0.86,0.42,0.86,0.86v11.01c0,0.5-0.39,0.89-0.86,0.89
					c-0.5,0-0.89-0.39-0.89-0.89V16.44C130.79,16,131.18,15.58,131.69,15.58z"/>
				<path class="st18" d="M134.68,16.83c-0.22-0.45-0.05-0.98,0.39-1.17c0.14-0.06,0.28-0.08,0.39-0.08c0.33,0,0.64,0.17,0.81,0.45
					l4.32,9.51l4.35-9.51c0.14-0.28,0.47-0.45,0.78-0.45c0.11,0,0.28,0.03,0.39,0.08c0.45,0.2,0.61,0.72,0.39,1.17l-5.1,11.01
					c-0.17,0.33-0.47,0.5-0.81,0.5c-0.31,0-0.64-0.17-0.81-0.5L134.68,16.83z"/>
				<path class="st18" d="M154.05,15.58c3.32,0,6.08,2.56,6.3,5.83c0.17,0.72-0.11,1.23-0.98,1.23h-9.84
					c0.28,2.23,2.2,3.96,4.52,3.96c1.25,0,2.43-0.53,3.26-1.37c0.2-0.17,0.42-0.25,0.61-0.25c0.25,0,0.47,0.08,0.61,0.25
					c0.36,0.36,0.36,0.89,0,1.25c-1.14,1.14-2.73,1.87-4.49,1.87c-3.51,0-6.38-2.87-6.38-6.38
					C147.66,18.45,150.54,15.58,154.05,15.58z M154.05,17.33c-2.31,0-4.24,1.76-4.52,3.99h9C158.31,19.09,156.36,17.33,154.05,17.33
					z"/>
			</g>
		</g>
		<g>
			<path class="st18" d="M63.68,39.53v-1.67l0.05,0.15l-1.95-3.18h0.25l1.82,2.97h-0.11l1.83-2.97h0.24l-1.96,3.18l0.05-0.15v1.67
				H63.68z"/>
			<path class="st18" d="M68.34,39.55c-0.33,0-0.62-0.08-0.88-0.23c-0.26-0.15-0.46-0.36-0.61-0.63c-0.15-0.27-0.23-0.57-0.23-0.91
				c0-0.34,0.08-0.65,0.23-0.91c0.15-0.26,0.35-0.47,0.61-0.62c0.26-0.15,0.55-0.23,0.88-0.23s0.62,0.08,0.88,0.23
				s0.46,0.36,0.61,0.62s0.22,0.57,0.22,0.91c0,0.34-0.07,0.64-0.22,0.91s-0.35,0.48-0.61,0.63C68.96,39.47,68.67,39.55,68.34,39.55
				z M68.34,39.34c0.29,0,0.54-0.07,0.77-0.2c0.23-0.13,0.4-0.32,0.53-0.55c0.13-0.24,0.19-0.51,0.19-0.81
				c0-0.31-0.06-0.58-0.19-0.82c-0.13-0.23-0.3-0.42-0.53-0.55c-0.23-0.13-0.48-0.19-0.77-0.19c-0.28,0-0.53,0.07-0.76,0.19
				c-0.22,0.13-0.4,0.31-0.53,0.55c-0.13,0.24-0.2,0.51-0.2,0.82c0,0.3,0.07,0.57,0.2,0.81s0.31,0.42,0.53,0.55
				S68.06,39.34,68.34,39.34z"/>
			<path class="st18" d="M73.37,39.55c-0.3,0-0.56-0.05-0.77-0.17c-0.21-0.11-0.38-0.27-0.5-0.49c-0.12-0.22-0.17-0.48-0.17-0.8
				v-2.05h0.22v2.03c0,0.42,0.11,0.73,0.32,0.95c0.21,0.21,0.52,0.32,0.91,0.32c0.28,0,0.52-0.06,0.72-0.18
				c0.2-0.12,0.36-0.28,0.47-0.5s0.16-0.46,0.16-0.75v-1.88h0.22v3.48h-0.21v-0.97l0.03,0.06c-0.1,0.29-0.27,0.51-0.51,0.68
				S73.72,39.55,73.37,39.55z"/>
			<path class="st18" d="M77.26,39.53v-3.48h0.21V37l-0.02-0.06c0.09-0.29,0.26-0.52,0.49-0.68c0.24-0.16,0.53-0.25,0.88-0.25v0.22
				c-0.01,0-0.02,0-0.03,0c-0.01,0-0.02,0-0.03,0c-0.4,0-0.72,0.13-0.95,0.38c-0.23,0.25-0.34,0.61-0.34,1.05v1.85H77.26z"/>
			<path class="st18" d="M83.21,39.53v-4.98h0.22v2.48l-0.03-0.06c0.11-0.29,0.29-0.52,0.53-0.69s0.56-0.25,0.92-0.25
				c0.29,0,0.53,0.06,0.74,0.17c0.21,0.11,0.37,0.28,0.49,0.49s0.17,0.48,0.17,0.8v2.05h-0.22v-2.03c0-0.42-0.1-0.73-0.32-0.95
				c-0.21-0.21-0.5-0.32-0.88-0.32c-0.29,0-0.54,0.06-0.75,0.17s-0.37,0.28-0.48,0.5c-0.11,0.21-0.17,0.47-0.17,0.75v1.88H83.21z"/>
			<path class="st18" d="M88.64,35.13c-0.06,0-0.11-0.02-0.15-0.07s-0.07-0.09-0.07-0.15c0-0.06,0.02-0.12,0.07-0.16
				c0.04-0.04,0.1-0.06,0.15-0.06c0.06,0,0.12,0.02,0.16,0.06c0.04,0.04,0.06,0.09,0.06,0.15c0,0.06-0.02,0.11-0.06,0.15
				C88.76,35.11,88.7,35.13,88.64,35.13z M88.53,39.53v-3.48h0.22v3.48H88.53z"/>
			<path class="st18" d="M91.95,39.53l-1.59-3.48h0.24l1.51,3.35h-0.1l1.52-3.35h0.24l-1.59,3.48H91.95z"/>
			<path class="st18" d="M96.63,39.55c-0.34,0-0.65-0.08-0.91-0.23c-0.26-0.15-0.47-0.36-0.62-0.63c-0.15-0.27-0.23-0.57-0.23-0.91
				c0-0.34,0.07-0.65,0.21-0.91c0.14-0.26,0.34-0.47,0.58-0.62s0.53-0.23,0.84-0.23c0.31,0,0.59,0.07,0.83,0.22s0.44,0.35,0.58,0.61
				c0.14,0.26,0.21,0.56,0.21,0.9c0,0.01,0,0.02,0,0.03c0,0.01,0,0.02,0,0.03h-3.12v-0.18h3l-0.09,0.11c0-0.29-0.06-0.55-0.18-0.78
				c-0.12-0.23-0.29-0.41-0.51-0.54s-0.46-0.2-0.73-0.2s-0.52,0.07-0.73,0.2c-0.21,0.13-0.38,0.31-0.51,0.54
				c-0.12,0.23-0.18,0.49-0.18,0.79v0.04c0,0.3,0.07,0.57,0.2,0.81c0.13,0.23,0.32,0.42,0.55,0.55s0.5,0.2,0.8,0.2
				c0.23,0,0.44-0.04,0.65-0.13c0.2-0.08,0.37-0.21,0.51-0.39l0.14,0.15c-0.16,0.19-0.35,0.33-0.57,0.43
				C97.13,39.5,96.89,39.55,96.63,39.55z"/>
			<path class="st18" d="M103.89,39.55c-0.33,0-0.62-0.08-0.88-0.23c-0.26-0.15-0.46-0.36-0.61-0.63c-0.15-0.27-0.23-0.57-0.23-0.91
				c0-0.34,0.08-0.65,0.23-0.91c0.15-0.26,0.35-0.47,0.61-0.62c0.26-0.15,0.55-0.23,0.88-0.23s0.62,0.08,0.88,0.23
				s0.46,0.36,0.61,0.62s0.22,0.57,0.22,0.91c0,0.34-0.07,0.64-0.22,0.91s-0.35,0.48-0.61,0.63
				C104.51,39.47,104.22,39.55,103.89,39.55z M103.89,39.34c0.29,0,0.54-0.07,0.77-0.2c0.23-0.13,0.4-0.32,0.53-0.55
				c0.13-0.24,0.19-0.51,0.19-0.81c0-0.31-0.06-0.58-0.19-0.82c-0.13-0.23-0.3-0.42-0.53-0.55c-0.23-0.13-0.48-0.19-0.77-0.19
				c-0.28,0-0.53,0.07-0.76,0.19c-0.22,0.13-0.4,0.31-0.53,0.55c-0.13,0.24-0.2,0.51-0.2,0.82c0,0.3,0.07,0.57,0.2,0.81
				s0.31,0.42,0.53,0.55S103.61,39.34,103.89,39.34z"/>
			<path class="st18" d="M106.92,36.24v-0.19h2.03v0.19H106.92z M107.58,39.53v-4.1c0-0.27,0.08-0.49,0.23-0.65s0.37-0.25,0.66-0.25
				c0.13,0,0.26,0.02,0.38,0.06s0.23,0.1,0.31,0.18l-0.11,0.17c-0.07-0.07-0.16-0.12-0.25-0.16s-0.2-0.05-0.31-0.05
				c-0.22,0-0.39,0.06-0.51,0.19s-0.17,0.31-0.17,0.54v0.64v0.11v3.33H107.58z"/>
			<path class="st18" d="M112.4,36.24v-0.19h2.03v0.19H112.4z M113.06,39.53v-4.1c0-0.27,0.08-0.49,0.23-0.65s0.37-0.25,0.66-0.25
				c0.13,0,0.26,0.02,0.38,0.06s0.23,0.1,0.31,0.18l-0.11,0.17c-0.07-0.07-0.16-0.12-0.25-0.16s-0.2-0.05-0.31-0.05
				c-0.22,0-0.39,0.06-0.51,0.19s-0.17,0.31-0.17,0.54v0.64v0.11v3.33H113.06z"/>
			<path class="st18" d="M115.96,39.53v-3.48h0.21V37l-0.02-0.06c0.09-0.29,0.26-0.52,0.49-0.68c0.24-0.16,0.53-0.25,0.88-0.25v0.22
				c-0.01,0-0.02,0-0.03,0c-0.01,0-0.02,0-0.03,0c-0.4,0-0.72,0.13-0.95,0.38c-0.23,0.25-0.34,0.61-0.34,1.05v1.85H115.96z"/>
			<path class="st18" d="M120.66,39.55c-0.34,0-0.65-0.08-0.91-0.23c-0.26-0.15-0.47-0.36-0.62-0.63c-0.15-0.27-0.23-0.57-0.23-0.91
				c0-0.34,0.07-0.65,0.21-0.91c0.14-0.26,0.34-0.47,0.58-0.62s0.53-0.23,0.84-0.23c0.31,0,0.59,0.07,0.83,0.22s0.44,0.35,0.58,0.61
				c0.14,0.26,0.21,0.56,0.21,0.9c0,0.01,0,0.02,0,0.03c0,0.01,0,0.02,0,0.03h-3.12v-0.18h3l-0.09,0.11c0-0.29-0.06-0.55-0.18-0.78
				c-0.12-0.23-0.29-0.41-0.51-0.54s-0.46-0.2-0.73-0.2s-0.52,0.07-0.73,0.2c-0.21,0.13-0.38,0.31-0.51,0.54
				c-0.12,0.23-0.18,0.49-0.18,0.79v0.04c0,0.3,0.07,0.57,0.2,0.81c0.13,0.23,0.32,0.42,0.55,0.55s0.5,0.2,0.8,0.2
				c0.23,0,0.44-0.04,0.65-0.13c0.2-0.08,0.37-0.21,0.51-0.39l0.14,0.15c-0.16,0.19-0.35,0.33-0.57,0.43
				C121.16,39.5,120.92,39.55,120.66,39.55z"/>
			<path class="st18" d="M124.92,39.55c-0.29,0-0.55-0.04-0.8-0.13c-0.25-0.09-0.44-0.2-0.57-0.33l0.11-0.17
				c0.13,0.12,0.31,0.22,0.53,0.31s0.47,0.13,0.74,0.13c0.39,0,0.67-0.07,0.84-0.2c0.17-0.13,0.26-0.31,0.26-0.52
				c0-0.16-0.04-0.28-0.13-0.37c-0.08-0.09-0.2-0.16-0.33-0.21c-0.14-0.05-0.29-0.09-0.46-0.12c-0.17-0.03-0.34-0.06-0.51-0.1
				c-0.17-0.04-0.32-0.09-0.46-0.15c-0.14-0.06-0.25-0.16-0.34-0.27s-0.13-0.27-0.13-0.46c0-0.17,0.05-0.32,0.14-0.46
				c0.09-0.14,0.23-0.25,0.42-0.34c0.19-0.09,0.43-0.13,0.72-0.13c0.21,0,0.43,0.03,0.65,0.1s0.39,0.15,0.52,0.26L126,36.55
				c-0.14-0.11-0.3-0.19-0.49-0.25s-0.38-0.08-0.57-0.08c-0.36,0-0.63,0.07-0.79,0.21c-0.17,0.14-0.25,0.31-0.25,0.51
				c0,0.16,0.04,0.29,0.13,0.39c0.08,0.1,0.2,0.17,0.33,0.22c0.14,0.05,0.29,0.09,0.46,0.12s0.33,0.07,0.5,0.1
				c0.17,0.04,0.32,0.08,0.46,0.15c0.14,0.06,0.25,0.15,0.33,0.26c0.08,0.11,0.13,0.26,0.13,0.46c0,0.18-0.05,0.34-0.15,0.48
				c-0.1,0.14-0.25,0.25-0.44,0.33C125.46,39.51,125.22,39.55,124.92,39.55z"/>
			<path class="st18" d="M128.06,39.53v-4.98h0.22v2.48l-0.03-0.06c0.11-0.29,0.29-0.52,0.53-0.69s0.56-0.25,0.92-0.25
				c0.29,0,0.53,0.06,0.74,0.17c0.21,0.11,0.37,0.28,0.49,0.49s0.17,0.48,0.17,0.8v2.05h-0.22v-2.03c0-0.42-0.1-0.73-0.32-0.95
				c-0.21-0.21-0.5-0.32-0.88-0.32c-0.29,0-0.54,0.06-0.75,0.17s-0.37,0.28-0.48,0.5c-0.11,0.21-0.17,0.47-0.17,0.75v1.88H128.06z"
				/>
			<path class="st18" d="M135.9,39.53v-4.98h0.22v2.7l-0.07,0.53l0.06,0.53v1.22H135.9z M137.62,39.55c-0.31,0-0.59-0.07-0.85-0.22
				c-0.25-0.14-0.45-0.35-0.59-0.62s-0.22-0.58-0.22-0.93c0-0.35,0.07-0.66,0.22-0.93s0.34-0.47,0.59-0.62
				c0.25-0.15,0.53-0.22,0.85-0.22c0.32,0,0.61,0.08,0.87,0.23c0.26,0.15,0.46,0.36,0.61,0.62c0.15,0.26,0.22,0.57,0.22,0.92
				c0,0.34-0.08,0.65-0.22,0.92c-0.15,0.27-0.35,0.47-0.61,0.62C138.23,39.47,137.94,39.55,137.62,39.55z M137.61,39.34
				c0.28,0,0.54-0.07,0.76-0.2c0.23-0.13,0.4-0.32,0.53-0.55s0.19-0.51,0.19-0.81c0-0.31-0.06-0.58-0.19-0.82
				c-0.13-0.23-0.31-0.42-0.53-0.55c-0.23-0.13-0.48-0.19-0.76-0.19c-0.29,0-0.54,0.07-0.76,0.19c-0.22,0.13-0.4,0.31-0.53,0.55
				c-0.13,0.24-0.19,0.51-0.19,0.82c0,0.3,0.06,0.57,0.19,0.81s0.31,0.42,0.53,0.55S137.33,39.34,137.61,39.34z"/>
			<path class="st18" d="M142.61,39.55c-0.34,0-0.65-0.08-0.91-0.23c-0.26-0.15-0.47-0.36-0.62-0.63c-0.15-0.27-0.23-0.57-0.23-0.91
				c0-0.34,0.07-0.65,0.21-0.91c0.14-0.26,0.34-0.47,0.58-0.62s0.53-0.23,0.84-0.23c0.31,0,0.59,0.07,0.83,0.22s0.44,0.35,0.58,0.61
				c0.14,0.26,0.21,0.56,0.21,0.9c0,0.01,0,0.02,0,0.03c0,0.01,0,0.02,0,0.03h-3.12v-0.18h3l-0.09,0.11c0-0.29-0.06-0.55-0.18-0.78
				c-0.12-0.23-0.29-0.41-0.51-0.54s-0.46-0.2-0.73-0.2s-0.52,0.07-0.73,0.2c-0.21,0.13-0.38,0.31-0.51,0.54
				c-0.12,0.23-0.18,0.49-0.18,0.79v0.04c0,0.3,0.07,0.57,0.2,0.81c0.13,0.23,0.32,0.42,0.55,0.55s0.5,0.2,0.8,0.2
				c0.23,0,0.44-0.04,0.65-0.13c0.2-0.08,0.37-0.21,0.51-0.39l0.14,0.15c-0.16,0.19-0.35,0.33-0.57,0.43
				C143.11,39.5,142.87,39.55,142.61,39.55z"/>
			<path class="st18" d="M146.85,39.55c-0.26,0-0.49-0.04-0.67-0.12s-0.33-0.2-0.43-0.35c-0.1-0.15-0.15-0.32-0.15-0.51
				c0-0.17,0.04-0.33,0.12-0.47c0.08-0.14,0.21-0.26,0.4-0.35s0.43-0.13,0.75-0.13h1.35v0.18h-1.35c-0.38,0-0.65,0.07-0.81,0.21
				c-0.16,0.14-0.24,0.32-0.24,0.54c0,0.25,0.09,0.44,0.28,0.59s0.44,0.22,0.76,0.22c0.32,0,0.59-0.07,0.8-0.22
				c0.21-0.15,0.37-0.35,0.48-0.62l0.07,0.15c-0.09,0.26-0.25,0.48-0.48,0.64S147.2,39.55,146.85,39.55z M148.14,39.53v-0.81
				l-0.01-0.12v-1.32c0-0.34-0.09-0.61-0.27-0.79c-0.18-0.18-0.45-0.27-0.8-0.27c-0.25,0-0.49,0.04-0.7,0.13
				c-0.21,0.09-0.39,0.2-0.54,0.34l-0.12-0.16c0.17-0.16,0.37-0.28,0.61-0.37s0.49-0.14,0.76-0.14c0.42,0,0.73,0.11,0.96,0.32
				c0.22,0.21,0.33,0.52,0.33,0.94v2.25H148.14z"/>
			<path class="st18" d="M150.04,36.24v-0.19h2.03v0.19H150.04z M151.58,39.55c-0.29,0-0.51-0.08-0.66-0.24
				c-0.15-0.16-0.23-0.38-0.23-0.65v-3.37h0.22v3.34c0,0.24,0.06,0.42,0.17,0.54s0.29,0.19,0.51,0.19c0.23,0,0.42-0.07,0.56-0.21
				l0.11,0.16c-0.08,0.08-0.19,0.14-0.32,0.18C151.84,39.53,151.71,39.55,151.58,39.55z"/>
			<path class="st18" d="M154.93,39.55c-0.29,0-0.55-0.04-0.8-0.13c-0.25-0.09-0.44-0.2-0.57-0.33l0.11-0.17
				c0.13,0.12,0.31,0.22,0.53,0.31s0.47,0.13,0.75,0.13c0.39,0,0.67-0.07,0.84-0.2c0.17-0.13,0.26-0.31,0.26-0.52
				c0-0.16-0.04-0.28-0.13-0.37c-0.08-0.09-0.2-0.16-0.34-0.21c-0.14-0.05-0.29-0.09-0.46-0.12c-0.17-0.03-0.34-0.06-0.51-0.1
				c-0.17-0.04-0.32-0.09-0.46-0.15c-0.14-0.06-0.25-0.16-0.33-0.27s-0.13-0.27-0.13-0.46c0-0.17,0.05-0.32,0.14-0.46
				s0.23-0.25,0.42-0.34c0.19-0.09,0.43-0.13,0.72-0.13c0.21,0,0.43,0.03,0.65,0.1s0.39,0.15,0.52,0.26l-0.11,0.17
				c-0.14-0.11-0.3-0.19-0.49-0.25s-0.38-0.08-0.57-0.08c-0.36,0-0.63,0.07-0.79,0.21c-0.17,0.14-0.25,0.31-0.25,0.51
				c0,0.16,0.04,0.29,0.13,0.39c0.08,0.1,0.2,0.17,0.34,0.22c0.14,0.05,0.29,0.09,0.46,0.12c0.17,0.03,0.34,0.07,0.5,0.1
				c0.17,0.04,0.32,0.08,0.46,0.15c0.14,0.06,0.25,0.15,0.34,0.26c0.08,0.11,0.13,0.26,0.13,0.46c0,0.18-0.05,0.34-0.15,0.48
				c-0.1,0.14-0.25,0.25-0.44,0.33S155.22,39.55,154.93,39.55z"/>
			<path class="st18" d="M157.96,39.55c-0.06,0-0.11-0.02-0.15-0.06c-0.04-0.04-0.07-0.09-0.07-0.16s0.02-0.12,0.07-0.16
				c0.04-0.04,0.1-0.06,0.15-0.06c0.06,0,0.12,0.02,0.16,0.06c0.04,0.04,0.06,0.1,0.06,0.16s-0.02,0.12-0.06,0.16
				C158.07,39.52,158.02,39.55,157.96,39.55z"/>
		</g>
	</g>
</g>
</svg>
