<?xml version="1.0" encoding="utf-8"?>
<!-- Generator: Adobe Illustrator 26.0.2, SVG Export Plug-In . SVG Version: 6.00 Build 0)  -->
<svg version="1.1" xmlns="http://www.w3.org/2000/svg" xmlns:xlink="http://www.w3.org/1999/xlink" x="0px" y="0px"
	 viewBox="0 0 101.17 98.26" style="enable-background:new 0 0 101.17 98.26;" xml:space="preserve">
<style type="text/css">
	.st0{fill:url(#SVGID_1_);}
	.st1{fill:url(#SVGID_00000077312973806009491850000016515915486428855460_);}
	.st2{fill:url(#SVGID_00000126303089323331659540000016090038895443484827_);}
	.st3{fill:url(#SVGID_00000006678231209694674370000000513206413014400423_);}
	.st4{fill:url(#SVGID_00000082352202028839074270000013887765747367510688_);}
	.st5{fill:url(#SVGID_00000055682128971562064180000014487824761614016701_);}
	.st6{fill:url(#SVGID_00000100343249252960564080000002893955337290605499_);}
	.st7{fill:url(#SVGID_00000008121932787885328690000003845188307340456880_);}
	.st8{fill:url(#SVGID_00000174591073620756359920000016734853422122025856_);}
	.st9{fill:url(#SVGID_00000102522268646212990020000004360199813414637235_);}
	.st10{fill:url(#SVGID_00000097480411305400741890000012909289887358868879_);}
	.st11{fill:url(#SVGID_00000103945519430186863130000000941348007385139897_);}
	.st12{fill:url(#SVGID_00000167364838593118947630000008859819092298461609_);}
	.st13{fill:url(#SVGID_00000085969726312414544220000014874685503587438471_);}
	.st14{fill:url(#SVGID_00000129913981669716147940000007190267610516218794_);}
	.st15{fill:url(#SVGID_00000005976372564991581160000009491647268910108334_);}
	.st16{fill:url(#SVGID_00000103255640281830091370000006342103124371750276_);}
	.st17{fill:#020218;}
	.st18{fill:#FFFFFF;}
	.st19{fill:url(#SVGID_00000091000696958685988410000003543786819877536654_);}
	.st20{fill:url(#SVGID_00000060717504350949643380000017888828353261792920_);}
	.st21{fill:url(#SVGID_00000067944260503592376220000014690834227289438611_);}
	.st22{fill:url(#SVGID_00000093168001546641049400000000507492228288768181_);}
	.st23{fill:url(#SVGID_00000154399617172966825510000014971733817832933536_);}
	.st24{fill:url(#SVGID_00000106133046837469082640000001133010788996818831_);}
	.st25{fill:url(#SVGID_00000182526289714343288540000005806818647808622497_);}
	.st26{fill:url(#SVGID_00000005236419708807721070000016959155373408187805_);}
	.st27{fill:url(#SVGID_00000078753424619051829620000005571783733306638515_);}
	.st28{fill:url(#SVGID_00000129183399046950995350000008752139571469856440_);}
	.st29{fill:url(#SVGID_00000012470675761251996320000005363155288804709538_);}
	.st30{fill:url(#SVGID_00000049187077065384280160000005706977277845005472_);}
	.st31{fill:url(#SVGID_00000103987481360864476140000001755671354507690368_);}
	.st32{fill:url(#SVGID_00000027580591167195955010000015286209022207233927_);}
	.st33{fill:url(#SVGID_00000067952391572724168820000012657420292204063881_);}
	.st34{fill:url(#SVGID_00000110461157163771249590000015068175073290451377_);}
	.st35{fill:url(#SVGID_00000086680163333889345360000005536445498344615311_);}
	.st36{fill:url(#SVGID_00000176034787536917748510000001044982389146255272_);}
	.st37{fill:url(#SVGID_00000013174380213271691610000009498021193804786868_);}
	.st38{fill:url(#SVGID_00000136393536206768392970000003515656022970405766_);}
	.st39{fill:url(#SVGID_00000029022738241728290220000017026183294684829599_);}
	.st40{fill:url(#SVGID_00000123438497100124448390000010524691680179579287_);}
	.st41{fill:url(#SVGID_00000037684641648804084990000009690671277660223915_);}
	.st42{fill:url(#SVGID_00000013175691162659427480000015713784718558014352_);}
	.st43{fill:url(#SVGID_00000127028649185646786330000016919338170000043193_);}
	.st44{fill:url(#SVGID_00000014594932508049696240000009015754465503471245_);}
	.st45{fill:url(#SVGID_00000017486098341591099750000018103771888693854360_);}
	.st46{fill:url(#SVGID_00000087380351849281015830000009460265494193190565_);}
	.st47{fill:url(#SVGID_00000000941818161753908450000001113424102473000607_);}
	.st48{fill:url(#SVGID_00000012452570613764039750000015925982903390905269_);}
	.st49{fill:url(#SVGID_00000067954681918692753160000012044201006453348536_);}
	.st50{fill:url(#SVGID_00000114789548729806952540000006115105869924146365_);}
	.st51{fill:url(#SVGID_00000160900257972508566320000005005903102884224909_);}
	.st52{fill:url(#SVGID_00000080885977897527095070000005091165379704723855_);}
</style>
<g id="BACKGROUND">
</g>
<g id="OBJECTS">
	<g>
		<g>
			<g>
				<path class="st18" d="M1.69,67.83c0-0.56,0.42-0.98,0.98-0.98h6.19c2.59,0,4.77,2.15,4.77,4.77c0,1.34-0.64,2.56-1.62,3.35
					c1.73,0.58,3.01,2.29,3.01,4.26c0,2.65-2.17,4.77-4.79,4.77H2.67c-0.56,0-0.98-0.42-0.98-0.95V67.83z M3.61,68.78v5.69h5.24
					c1.56,0,2.84-1.28,2.84-2.84s-1.31-2.84-2.84-2.84H3.61z M3.61,76.39v5.69h6.61c1.56,0,2.84-1.25,2.84-2.84
					c0-1.56-1.28-2.84-2.84-2.84H3.61z"/>
				<path class="st18" d="M23.18,71.26c3.32,0,6.08,2.56,6.3,5.83c0.17,0.72-0.11,1.23-0.98,1.23h-9.84
					c0.28,2.23,2.2,3.96,4.52,3.96c1.25,0,2.43-0.53,3.26-1.37c0.2-0.17,0.42-0.25,0.61-0.25c0.25,0,0.47,0.08,0.61,0.25
					c0.36,0.36,0.36,0.89,0,1.25c-1.14,1.14-2.73,1.87-4.49,1.87c-3.51,0-6.38-2.87-6.38-6.38C16.8,74.13,19.67,71.26,23.18,71.26z
					 M23.18,73.02c-2.31,0-4.24,1.76-4.52,3.99h9C27.45,74.77,25.5,73.02,23.18,73.02z"/>
				<path class="st18" d="M31.2,77.64c0-3.54,2.87-6.38,6.38-6.38c3.51,0,6.38,2.84,6.38,6.38v5.49c0,0.5-0.39,0.89-0.86,0.89
					c-0.5,0-0.89-0.39-0.89-0.89v-1.09c-1.17,1.23-2.82,1.98-4.63,1.98C34.07,84.03,31.2,81.18,31.2,77.64z M32.96,77.64
					c0,2.56,2.06,4.63,4.63,4.63c2.56,0,4.63-2.06,4.63-4.63c0-2.59-2.06-4.66-4.63-4.66C35.02,72.99,32.96,75.05,32.96,77.64z"/>
				<path class="st18" d="M48.76,66.85c0.5,0,0.89,0.39,0.89,0.86v3.54h2.26c0.5,0,0.89,0.36,0.89,0.86c0,0.47-0.39,0.86-0.89,0.86
					h-2.26v10.17c0,0.5-0.39,0.89-0.89,0.89c-0.47,0-0.89-0.39-0.89-0.89V72.99h-2.26c-0.47,0-0.86-0.39-0.86-0.86
					c0-0.5,0.39-0.86,0.86-0.86h2.26v-3.54C47.86,67.25,48.28,66.85,48.76,66.85z"/>
				<path class="st18" d="M65.62,74.49v-6.63c0-0.56,0.45-1,0.98-1c0.5,0,0.95,0.45,0.95,1v15.22c0,0.5-0.45,0.95-0.95,0.95
					c-0.53,0-0.98-0.45-0.98-0.95v-6.69h-8.89v6.69c0,0.5-0.45,0.95-0.95,0.95c-0.53,0-0.95-0.45-0.95-0.95V67.86
					c0-0.56,0.42-1,0.95-1c0.5,0,0.95,0.45,0.95,1v6.63H65.62z"/>
				<path class="st18" d="M71.69,67.66c0.61,0,1.12,0.5,1.12,1.14c0,0.61-0.5,1.09-1.12,1.09c-0.61,0-1.12-0.47-1.12-1.09
					C70.58,68.17,71.08,67.66,71.69,67.66z M71.69,71.26c0.47,0,0.86,0.42,0.86,0.86v11.01c0,0.5-0.39,0.89-0.86,0.89
					c-0.5,0-0.89-0.39-0.89-0.89V72.12C70.8,71.68,71.19,71.26,71.69,71.26z"/>
				<path class="st18" d="M74.69,72.51c-0.22-0.45-0.06-0.98,0.39-1.17c0.14-0.06,0.28-0.08,0.39-0.08c0.33,0,0.64,0.17,0.81,0.45
					l4.32,9.51l4.35-9.51c0.14-0.28,0.47-0.45,0.78-0.45c0.11,0,0.28,0.03,0.39,0.08c0.45,0.2,0.61,0.72,0.39,1.17l-5.1,11.01
					c-0.17,0.33-0.47,0.5-0.81,0.5c-0.31,0-0.64-0.17-0.81-0.5L74.69,72.51z"/>
				<path class="st18" d="M94.06,71.26c3.32,0,6.08,2.56,6.3,5.83c0.17,0.72-0.11,1.23-0.98,1.23h-9.84
					c0.28,2.23,2.2,3.96,4.52,3.96c1.25,0,2.43-0.53,3.26-1.37c0.2-0.17,0.42-0.25,0.61-0.25c0.25,0,0.47,0.08,0.61,0.25
					c0.36,0.36,0.36,0.89,0,1.25c-1.14,1.14-2.73,1.87-4.49,1.87c-3.51,0-6.38-2.87-6.38-6.38C87.67,74.13,90.54,71.26,94.06,71.26z
					 M94.06,73.02c-2.31,0-4.24,1.76-4.52,3.99h9C98.32,74.77,96.37,73.02,94.06,73.02z"/>
			</g>
		</g>
		<g id="CUSTOM-group_00000137848586767755726540000001753621774223786919_">
			<g>
				<g>
					<g>
						<linearGradient id="SVGID_1_" gradientUnits="userSpaceOnUse" x1="20.4185" y1="23.605" x2="76.5305" y2="28.3552">
							<stop  offset="0" style="stop-color:#12CCFF"/>
							<stop  offset="1" style="stop-color:#6500C9"/>
						</linearGradient>
						<path class="st0" d="M78.28,32.02c-0.46,0-0.84-0.37-0.84-0.84v-5.36c0-0.46,0.37-0.84,0.84-0.84c0.46,0,0.84,0.37,0.84,0.84
							v5.36C79.11,31.64,78.74,32.02,78.28,32.02z"/>
					</g>
					<g>
						
							<linearGradient id="SVGID_00000123430076915884752080000001442838883448898226_" gradientUnits="userSpaceOnUse" x1="20.3939" y1="23.8957" x2="76.5059" y2="28.6459">
							<stop  offset="0" style="stop-color:#12CCFF"/>
							<stop  offset="1" style="stop-color:#6500C9"/>
						</linearGradient>
						<path style="fill:url(#SVGID_00000123430076915884752080000001442838883448898226_);" d="M74.82,37.46
							c-0.46,0-0.84-0.37-0.84-0.84V20.38c0-0.46,0.37-0.84,0.84-0.84c0.46,0,0.84,0.37,0.84,0.84v16.25
							C75.66,37.09,75.28,37.46,74.82,37.46L74.82,37.46z"/>
					</g>
					<g>
						
							<linearGradient id="SVGID_00000029725000362423349000000005536406931702684592_" gradientUnits="userSpaceOnUse" x1="20.3693" y1="24.1864" x2="76.4813" y2="28.9366">
							<stop  offset="0" style="stop-color:#12CCFF"/>
							<stop  offset="1" style="stop-color:#6500C9"/>
						</linearGradient>
						<path style="fill:url(#SVGID_00000029725000362423349000000005536406931702684592_);" d="M71.36,35.65
							c-0.46,0-0.84-0.37-0.84-0.84V22.2c0-0.46,0.37-0.84,0.84-0.84s0.84,0.37,0.84,0.84v12.62C72.2,35.27,71.82,35.65,71.36,35.65
							z"/>
					</g>
					<g>
						
							<linearGradient id="SVGID_00000074439332985854328270000016531275906655591584_" gradientUnits="userSpaceOnUse" x1="20.3447" y1="24.4771" x2="76.4567" y2="29.2273">
							<stop  offset="0" style="stop-color:#12CCFF"/>
							<stop  offset="1" style="stop-color:#6500C9"/>
						</linearGradient>
						<path style="fill:url(#SVGID_00000074439332985854328270000016531275906655591584_);" d="M67.9,41.25
							c-0.46,0-0.84-0.37-0.84-0.84V16.59c0-0.46,0.37-0.84,0.84-0.84c0.46,0,0.84,0.37,0.84,0.84v23.83
							C68.74,40.88,68.37,41.25,67.9,41.25L67.9,41.25z"/>
					</g>
					<g>
						
							<linearGradient id="SVGID_00000163068321004239766110000010301378106326069927_" gradientUnits="userSpaceOnUse" x1="20.3201" y1="24.7678" x2="76.4321" y2="29.518">
							<stop  offset="0" style="stop-color:#12CCFF"/>
							<stop  offset="1" style="stop-color:#6500C9"/>
						</linearGradient>
						<path style="fill:url(#SVGID_00000163068321004239766110000010301378106326069927_);" d="M64.45,44.63
							c-0.46,0-0.84-0.37-0.84-0.84V13.21c0-0.46,0.37-0.84,0.84-0.84c0.46,0,0.84,0.37,0.84,0.84V43.8
							C65.28,44.26,64.91,44.63,64.45,44.63z"/>
					</g>
					<g>
						
							<linearGradient id="SVGID_00000113349874893542498450000012107961878128015243_" gradientUnits="userSpaceOnUse" x1="20.2955" y1="25.0585" x2="76.4074" y2="29.8087">
							<stop  offset="0" style="stop-color:#12CCFF"/>
							<stop  offset="1" style="stop-color:#6500C9"/>
						</linearGradient>
						<path style="fill:url(#SVGID_00000113349874893542498450000012107961878128015243_);" d="M60.99,51.94
							c-0.46,0-0.84-0.37-0.84-0.84V5.9c0-0.46,0.37-0.84,0.84-0.84c0.46,0,0.84,0.37,0.84,0.84v45.2
							C61.82,51.57,61.45,51.94,60.99,51.94z"/>
					</g>
					<g>
						
							<linearGradient id="SVGID_00000096756483282935197450000005936509371189603756_" gradientUnits="userSpaceOnUse" x1="20.2709" y1="25.3492" x2="76.3828" y2="30.0994">
							<stop  offset="0" style="stop-color:#12CCFF"/>
							<stop  offset="1" style="stop-color:#6500C9"/>
						</linearGradient>
						<path style="fill:url(#SVGID_00000096756483282935197450000005936509371189603756_);" d="M57.53,49.66
							c-0.46,0-0.84-0.37-0.84-0.84V8.18c0-0.46,0.37-0.84,0.84-0.84c0.46,0,0.84,0.37,0.84,0.84v40.64
							C58.36,49.28,57.99,49.66,57.53,49.66z"/>
					</g>
					<g>
						
							<linearGradient id="SVGID_00000098911020946569998150000007210276830776895115_" gradientUnits="userSpaceOnUse" x1="20.2462" y1="25.6399" x2="76.3582" y2="30.3901">
							<stop  offset="0" style="stop-color:#12CCFF"/>
							<stop  offset="1" style="stop-color:#6500C9"/>
						</linearGradient>
						<path style="fill:url(#SVGID_00000098911020946569998150000007210276830776895115_);" d="M54.07,54.39
							c-0.46,0-0.84-0.37-0.84-0.84V3.45c0-0.46,0.37-0.84,0.84-0.84c0.46,0,0.84,0.37,0.84,0.84v50.1
							C54.9,54.02,54.53,54.39,54.07,54.39z"/>
					</g>
				</g>
				<g>
					
						<linearGradient id="SVGID_00000178915589377455351410000003204761114915998088_" gradientUnits="userSpaceOnUse" x1="20.0244" y1="28.2609" x2="76.1363" y2="33.0111">
						<stop  offset="0" style="stop-color:#12CCFF"/>
						<stop  offset="1" style="stop-color:#6500C9"/>
					</linearGradient>
					<path style="fill:url(#SVGID_00000178915589377455351410000003204761114915998088_);" d="M22.89,32.02
						c-0.46,0-0.84-0.37-0.84-0.84v-5.36c0-0.46,0.37-0.84,0.84-0.84s0.84,0.37,0.84,0.84v5.36C23.72,31.64,23.35,32.02,22.89,32.02
						z"/>
				</g>
				<g>
					
						<linearGradient id="SVGID_00000134209646262064213970000000306850412899592377_" gradientUnits="userSpaceOnUse" x1="20.049" y1="27.9702" x2="76.161" y2="32.7204">
						<stop  offset="0" style="stop-color:#12CCFF"/>
						<stop  offset="1" style="stop-color:#6500C9"/>
					</linearGradient>
					<path style="fill:url(#SVGID_00000134209646262064213970000000306850412899592377_);" d="M26.35,37.46
						c-0.46,0-0.84-0.37-0.84-0.84V20.38c0-0.46,0.37-0.84,0.84-0.84c0.46,0,0.84,0.37,0.84,0.84v16.25
						C27.18,37.09,26.81,37.46,26.35,37.46L26.35,37.46z"/>
				</g>
				<g>
					
						<linearGradient id="SVGID_00000129170858091599093970000004821633223948550288_" gradientUnits="userSpaceOnUse" x1="20.0736" y1="27.6795" x2="76.1856" y2="32.4297">
						<stop  offset="0" style="stop-color:#12CCFF"/>
						<stop  offset="1" style="stop-color:#6500C9"/>
					</linearGradient>
					<path style="fill:url(#SVGID_00000129170858091599093970000004821633223948550288_);" d="M29.8,35.65
						c-0.46,0-0.84-0.37-0.84-0.84V22.2c0-0.46,0.37-0.84,0.84-0.84c0.46,0,0.84,0.37,0.84,0.84v12.62
						C30.64,35.27,30.27,35.65,29.8,35.65z"/>
				</g>
				<g>
					
						<linearGradient id="SVGID_00000004527459537755103170000009976337769354793129_" gradientUnits="userSpaceOnUse" x1="20.0982" y1="27.3888" x2="76.2102" y2="32.139">
						<stop  offset="0" style="stop-color:#12CCFF"/>
						<stop  offset="1" style="stop-color:#6500C9"/>
					</linearGradient>
					<path style="fill:url(#SVGID_00000004527459537755103170000009976337769354793129_);" d="M33.26,41.25
						c-0.46,0-0.84-0.37-0.84-0.84V16.59c0-0.46,0.37-0.84,0.84-0.84c0.46,0,0.84,0.37,0.84,0.84v23.83
						C34.1,40.88,33.72,41.25,33.26,41.25L33.26,41.25z"/>
				</g>
				<g>
					
						<linearGradient id="SVGID_00000076592363761108263070000001235895696631320247_" gradientUnits="userSpaceOnUse" x1="20.1228" y1="27.0981" x2="76.2348" y2="31.8483">
						<stop  offset="0" style="stop-color:#12CCFF"/>
						<stop  offset="1" style="stop-color:#6500C9"/>
					</linearGradient>
					<path style="fill:url(#SVGID_00000076592363761108263070000001235895696631320247_);" d="M36.72,44.63
						c-0.46,0-0.84-0.37-0.84-0.84V13.21c0-0.46,0.37-0.84,0.84-0.84c0.46,0,0.84,0.37,0.84,0.84V43.8
						C37.56,44.26,37.18,44.63,36.72,44.63z"/>
				</g>
				<g>
					
						<linearGradient id="SVGID_00000050627620251572088310000010102110288271559610_" gradientUnits="userSpaceOnUse" x1="20.1474" y1="26.8074" x2="76.2594" y2="31.5576">
						<stop  offset="0" style="stop-color:#12CCFF"/>
						<stop  offset="1" style="stop-color:#6500C9"/>
					</linearGradient>
					<path style="fill:url(#SVGID_00000050627620251572088310000010102110288271559610_);" d="M40.18,51.94
						c-0.46,0-0.84-0.37-0.84-0.84V5.9c0-0.46,0.37-0.84,0.84-0.84c0.46,0,0.84,0.37,0.84,0.84v45.2
						C41.02,51.57,40.64,51.94,40.18,51.94z"/>
				</g>
				<g>
					
						<linearGradient id="SVGID_00000160152941409900051440000006927302849972710823_" gradientUnits="userSpaceOnUse" x1="20.172" y1="26.5167" x2="76.284" y2="31.2669">
						<stop  offset="0" style="stop-color:#12CCFF"/>
						<stop  offset="1" style="stop-color:#6500C9"/>
					</linearGradient>
					<path style="fill:url(#SVGID_00000160152941409900051440000006927302849972710823_);" d="M43.64,49.66
						c-0.46,0-0.84-0.37-0.84-0.84V8.18c0-0.46,0.37-0.84,0.84-0.84s0.84,0.37,0.84,0.84v40.64C44.47,49.28,44.1,49.66,43.64,49.66z
						"/>
				</g>
				<g>
					
						<linearGradient id="SVGID_00000127039623794952613240000005451773701126285451_" gradientUnits="userSpaceOnUse" x1="20.1966" y1="26.226" x2="76.3086" y2="30.9762">
						<stop  offset="0" style="stop-color:#12CCFF"/>
						<stop  offset="1" style="stop-color:#6500C9"/>
					</linearGradient>
					<path style="fill:url(#SVGID_00000127039623794952613240000005451773701126285451_);" d="M47.1,54.39
						c-0.46,0-0.84-0.37-0.84-0.84V3.45c0-0.46,0.37-0.84,0.84-0.84c0.46,0,0.84,0.37,0.84,0.84v50.1
						C47.93,54.02,47.56,54.39,47.1,54.39z"/>
				</g>
				<g>
					
						<linearGradient id="SVGID_00000094604433622469580130000002513722834232214957_" gradientUnits="userSpaceOnUse" x1="20.2212" y1="25.9353" x2="76.3332" y2="30.6855">
						<stop  offset="0" style="stop-color:#12CCFF"/>
						<stop  offset="1" style="stop-color:#6500C9"/>
					</linearGradient>
					<path style="fill:url(#SVGID_00000094604433622469580130000002513722834232214957_);" d="M50.56,57.01
						c-0.46,0-0.84-0.37-0.84-0.84V0.84c0-0.46,0.37-0.84,0.84-0.84c0.46,0,0.84,0.37,0.84,0.84v55.34
						C51.39,56.63,51.02,57.01,50.56,57.01z"/>
				</g>
			</g>
			<g>
				
					<ellipse transform="matrix(0.9999 -0.0132 0.0132 0.9999 -0.3724 0.6716)" class="st17" cx="50.61" cy="28.5" rx="15.03" ry="15.03"/>
				<g>
					
						<ellipse transform="matrix(0.1598 -0.9872 0.9872 0.1598 4.6595 73.5929)" class="st18" cx="45.56" cy="34.06" rx="2.66" ry="2.66"/>
					
						<ellipse transform="matrix(0.2244 -0.9745 0.9745 0.2244 12.221 77.069)" class="st18" cx="54.53" cy="30.86" rx="2.66" ry="2.66"/>
					<path class="st18" d="M57.18,20.03c-0.06-0.53-0.61-0.87-1.11-0.69l-8.97,3.2c-0.33,0.12-0.55,0.44-0.55,0.79v2.88v7.85
						c0,0.46,0.37,0.84,0.84,0.84c0.46,0,0.84-0.37,0.84-0.84V26.8l7.3-2.61v6.66c0,0.46,0.37,0.84,0.84,0.84
						c0.46,0,0.84-0.37,0.84-0.84v-7.85v-2.88C57.19,20.1,57.18,20.07,57.18,20.03L57.18,20.03z M48.22,25.03v-1.11l7.3-2.61v1.11
						L48.22,25.03z"/>
					<path class="st18" d="M56.29,22.82l-8.96,3.27v-2.91l8.96-3.27V22.82z"/>
				</g>
			</g>
		</g>
		<g>
			<path class="st18" d="M3.69,95.21v-1.67l0.05,0.15l-1.95-3.18h0.25l1.82,2.97H3.75l1.83-2.97h0.24l-1.96,3.18l0.05-0.15v1.67
				H3.69z"/>
			<path class="st18" d="M8.35,95.23c-0.33,0-0.62-0.08-0.88-0.23c-0.26-0.15-0.46-0.36-0.61-0.63c-0.15-0.27-0.23-0.57-0.23-0.91
				c0-0.34,0.08-0.65,0.23-0.91c0.15-0.26,0.35-0.47,0.61-0.62c0.26-0.15,0.55-0.23,0.88-0.23c0.33,0,0.62,0.08,0.88,0.23
				c0.26,0.15,0.46,0.36,0.61,0.62s0.22,0.57,0.22,0.91c0,0.34-0.07,0.64-0.22,0.91S9.49,94.85,9.23,95
				C8.97,95.15,8.68,95.23,8.35,95.23z M8.35,95.03c0.29,0,0.54-0.07,0.77-0.2c0.23-0.13,0.4-0.32,0.53-0.55s0.19-0.51,0.19-0.81
				c0-0.31-0.06-0.58-0.19-0.82c-0.13-0.23-0.3-0.42-0.53-0.55c-0.23-0.13-0.48-0.19-0.77-0.19c-0.28,0-0.53,0.07-0.76,0.19
				c-0.22,0.13-0.4,0.31-0.53,0.55c-0.13,0.24-0.2,0.51-0.2,0.82c0,0.3,0.07,0.57,0.2,0.81s0.31,0.42,0.53,0.55
				S8.07,95.03,8.35,95.03z"/>
			<path class="st18" d="M13.38,95.23c-0.3,0-0.56-0.05-0.77-0.17c-0.21-0.11-0.38-0.27-0.5-0.49c-0.12-0.22-0.17-0.48-0.17-0.8
				v-2.05h0.22v2.03c0,0.42,0.11,0.73,0.32,0.95c0.21,0.21,0.52,0.32,0.91,0.32c0.28,0,0.52-0.06,0.72-0.18
				c0.2-0.12,0.36-0.28,0.47-0.5s0.16-0.46,0.16-0.75v-1.88h0.22v3.48h-0.21v-0.97l0.03,0.06c-0.1,0.29-0.27,0.51-0.51,0.68
				C14.02,95.14,13.73,95.23,13.38,95.23z"/>
			<path class="st18" d="M17.27,95.21v-3.48h0.21v0.96l-0.02-0.06c0.09-0.29,0.26-0.52,0.49-0.68s0.53-0.25,0.88-0.25v0.22
				c-0.01,0-0.02,0-0.03,0s-0.02,0-0.03,0c-0.4,0-0.72,0.13-0.95,0.38s-0.34,0.61-0.34,1.05v1.85H17.27z"/>
			<path class="st18" d="M23.22,95.21v-4.98h0.22v2.48l-0.03-0.06c0.11-0.29,0.29-0.52,0.53-0.69s0.56-0.25,0.92-0.25
				c0.29,0,0.53,0.06,0.74,0.17c0.21,0.11,0.37,0.28,0.49,0.49s0.17,0.48,0.17,0.8v2.05h-0.22v-2.03c0-0.42-0.1-0.73-0.32-0.95
				c-0.21-0.21-0.51-0.32-0.89-0.32c-0.29,0-0.54,0.06-0.75,0.17c-0.21,0.12-0.37,0.28-0.48,0.5s-0.17,0.47-0.17,0.75v1.88H23.22z"
				/>
			<path class="st18" d="M28.65,90.81c-0.06,0-0.11-0.02-0.15-0.07c-0.04-0.04-0.07-0.09-0.07-0.15c0-0.06,0.02-0.12,0.07-0.16
				c0.04-0.04,0.1-0.06,0.15-0.06c0.06,0,0.12,0.02,0.16,0.06c0.04,0.04,0.06,0.09,0.06,0.15c0,0.06-0.02,0.11-0.06,0.15
				S28.71,90.81,28.65,90.81z M28.54,95.21v-3.48h0.22v3.48H28.54z"/>
			<path class="st18" d="M31.96,95.21l-1.59-3.48h0.24l1.51,3.35h-0.1l1.52-3.35h0.23l-1.59,3.48H31.96z"/>
			<path class="st18" d="M36.64,95.23c-0.34,0-0.65-0.08-0.91-0.23c-0.26-0.15-0.47-0.36-0.62-0.63c-0.15-0.27-0.23-0.57-0.23-0.91
				c0-0.34,0.07-0.65,0.21-0.91c0.14-0.26,0.34-0.47,0.58-0.62c0.25-0.15,0.53-0.23,0.84-0.23c0.31,0,0.59,0.07,0.83,0.22
				s0.44,0.35,0.58,0.61c0.14,0.26,0.21,0.56,0.21,0.9c0,0.01,0,0.02,0,0.03c0,0.01,0,0.02,0,0.03h-3.12v-0.18h3l-0.09,0.11
				c0-0.29-0.06-0.55-0.18-0.78c-0.12-0.23-0.29-0.41-0.51-0.54c-0.21-0.13-0.46-0.2-0.73-0.2c-0.27,0-0.52,0.07-0.73,0.2
				c-0.21,0.13-0.38,0.31-0.51,0.54c-0.12,0.23-0.18,0.49-0.18,0.79v0.04c0,0.3,0.07,0.57,0.2,0.81c0.13,0.23,0.32,0.42,0.55,0.55
				c0.23,0.13,0.5,0.2,0.8,0.2c0.23,0,0.44-0.04,0.65-0.13c0.2-0.08,0.37-0.21,0.51-0.39l0.14,0.15c-0.16,0.19-0.35,0.33-0.57,0.43
				C37.14,95.18,36.9,95.23,36.64,95.23z"/>
			<path class="st18" d="M43.9,95.23c-0.33,0-0.62-0.08-0.88-0.23c-0.26-0.15-0.46-0.36-0.61-0.63c-0.15-0.27-0.23-0.57-0.23-0.91
				c0-0.34,0.08-0.65,0.23-0.91c0.15-0.26,0.35-0.47,0.61-0.62c0.26-0.15,0.55-0.23,0.88-0.23c0.33,0,0.62,0.08,0.88,0.23
				c0.26,0.15,0.46,0.36,0.61,0.62s0.22,0.57,0.22,0.91c0,0.34-0.07,0.64-0.22,0.91s-0.35,0.48-0.61,0.63
				C44.52,95.15,44.22,95.23,43.9,95.23z M43.9,95.03c0.29,0,0.54-0.07,0.77-0.2c0.23-0.13,0.4-0.32,0.53-0.55s0.19-0.51,0.19-0.81
				c0-0.31-0.06-0.58-0.19-0.82c-0.13-0.23-0.3-0.42-0.53-0.55c-0.23-0.13-0.48-0.19-0.77-0.19c-0.28,0-0.53,0.07-0.76,0.19
				c-0.22,0.13-0.4,0.31-0.53,0.55c-0.13,0.24-0.2,0.51-0.2,0.82c0,0.3,0.07,0.57,0.2,0.81s0.31,0.42,0.53,0.55
				S43.62,95.03,43.9,95.03z"/>
			<path class="st18" d="M46.93,91.92v-0.19h2.03v0.19H46.93z M47.59,95.21v-4.1c0-0.27,0.08-0.49,0.23-0.65s0.37-0.25,0.66-0.25
				c0.13,0,0.26,0.02,0.38,0.06s0.23,0.1,0.31,0.18l-0.11,0.17c-0.07-0.07-0.16-0.12-0.25-0.16c-0.1-0.03-0.2-0.05-0.31-0.05
				c-0.22,0-0.39,0.06-0.51,0.19s-0.17,0.31-0.17,0.54v0.64v0.11v3.33H47.59z"/>
			<path class="st18" d="M52.41,91.92v-0.19h2.03v0.19H52.41z M53.07,95.21v-4.1c0-0.27,0.08-0.49,0.23-0.65s0.37-0.25,0.66-0.25
				c0.13,0,0.26,0.02,0.38,0.06s0.23,0.1,0.31,0.18l-0.11,0.17c-0.07-0.07-0.16-0.12-0.25-0.16c-0.1-0.03-0.2-0.05-0.31-0.05
				c-0.22,0-0.39,0.06-0.51,0.19s-0.17,0.31-0.17,0.54v0.64v0.11v3.33H53.07z"/>
			<path class="st18" d="M55.97,95.21v-3.48h0.21v0.96l-0.02-0.06c0.09-0.29,0.26-0.52,0.49-0.68s0.53-0.25,0.88-0.25v0.22
				c-0.01,0-0.02,0-0.03,0s-0.02,0-0.03,0c-0.4,0-0.72,0.13-0.95,0.38s-0.34,0.61-0.34,1.05v1.85H55.97z"/>
			<path class="st18" d="M60.67,95.23c-0.34,0-0.65-0.08-0.91-0.23c-0.26-0.15-0.47-0.36-0.62-0.63c-0.15-0.27-0.23-0.57-0.23-0.91
				c0-0.34,0.07-0.65,0.21-0.91c0.14-0.26,0.34-0.47,0.58-0.62c0.25-0.15,0.53-0.23,0.84-0.23c0.31,0,0.59,0.07,0.83,0.22
				s0.44,0.35,0.58,0.61c0.14,0.26,0.21,0.56,0.21,0.9c0,0.01,0,0.02,0,0.03c0,0.01,0,0.02,0,0.03h-3.12v-0.18h3l-0.09,0.11
				c0-0.29-0.06-0.55-0.18-0.78c-0.12-0.23-0.29-0.41-0.51-0.54c-0.21-0.13-0.46-0.2-0.73-0.2c-0.27,0-0.52,0.07-0.73,0.2
				c-0.21,0.13-0.38,0.31-0.51,0.54c-0.12,0.23-0.18,0.49-0.18,0.79v0.04c0,0.3,0.07,0.57,0.2,0.81c0.13,0.23,0.32,0.42,0.55,0.55
				c0.23,0.13,0.5,0.2,0.8,0.2c0.23,0,0.44-0.04,0.65-0.13c0.2-0.08,0.37-0.21,0.51-0.39l0.14,0.15c-0.16,0.19-0.35,0.33-0.57,0.43
				C61.16,95.18,60.92,95.23,60.67,95.23z"/>
			<path class="st18" d="M64.93,95.23c-0.29,0-0.55-0.04-0.8-0.13c-0.25-0.09-0.44-0.2-0.57-0.33l0.11-0.17
				c0.13,0.12,0.31,0.22,0.53,0.31s0.47,0.13,0.74,0.13c0.39,0,0.67-0.07,0.84-0.2c0.17-0.13,0.26-0.31,0.26-0.52
				c0-0.16-0.04-0.28-0.13-0.37c-0.08-0.09-0.2-0.16-0.34-0.21c-0.14-0.05-0.29-0.09-0.46-0.12c-0.17-0.03-0.34-0.06-0.51-0.1
				c-0.17-0.04-0.32-0.09-0.46-0.15c-0.14-0.06-0.25-0.16-0.34-0.27s-0.13-0.27-0.13-0.46c0-0.17,0.05-0.32,0.14-0.46
				c0.09-0.14,0.23-0.25,0.42-0.34c0.19-0.09,0.43-0.13,0.72-0.13c0.21,0,0.43,0.03,0.65,0.1s0.39,0.15,0.52,0.26l-0.11,0.17
				c-0.14-0.11-0.3-0.19-0.49-0.25s-0.38-0.08-0.57-0.08c-0.36,0-0.63,0.07-0.79,0.21s-0.25,0.31-0.25,0.51
				c0,0.16,0.04,0.29,0.13,0.39c0.08,0.1,0.2,0.17,0.34,0.22c0.14,0.05,0.29,0.09,0.46,0.12c0.17,0.03,0.34,0.07,0.5,0.1
				c0.17,0.04,0.32,0.08,0.46,0.15c0.14,0.06,0.25,0.15,0.34,0.26c0.08,0.11,0.13,0.26,0.13,0.46c0,0.18-0.05,0.34-0.15,0.48
				c-0.1,0.14-0.25,0.25-0.44,0.33C65.47,95.19,65.22,95.23,64.93,95.23z"/>
			<path class="st18" d="M68.07,95.21v-4.98h0.22v2.48l-0.03-0.06c0.11-0.29,0.29-0.52,0.53-0.69s0.56-0.25,0.92-0.25
				c0.29,0,0.53,0.06,0.74,0.17c0.21,0.11,0.37,0.28,0.49,0.49s0.17,0.48,0.17,0.8v2.05h-0.22v-2.03c0-0.42-0.1-0.73-0.32-0.95
				c-0.21-0.21-0.51-0.32-0.89-0.32c-0.29,0-0.54,0.06-0.75,0.17c-0.21,0.12-0.37,0.28-0.48,0.5s-0.17,0.47-0.17,0.75v1.88H68.07z"
				/>
			<path class="st18" d="M75.91,95.21v-4.98h0.22v2.7l-0.07,0.53l0.06,0.53v1.22H75.91z M77.63,95.23c-0.31,0-0.59-0.07-0.85-0.22
				c-0.25-0.14-0.45-0.35-0.59-0.62s-0.22-0.58-0.22-0.93c0-0.35,0.07-0.66,0.22-0.93s0.34-0.47,0.59-0.62s0.53-0.22,0.85-0.22
				c0.32,0,0.61,0.08,0.87,0.23c0.26,0.15,0.46,0.36,0.61,0.62c0.15,0.26,0.22,0.57,0.22,0.92c0,0.34-0.08,0.65-0.22,0.92
				c-0.15,0.27-0.35,0.47-0.61,0.62C78.24,95.15,77.95,95.23,77.63,95.23z M77.62,95.03c0.28,0,0.54-0.07,0.76-0.2
				c0.23-0.13,0.4-0.32,0.53-0.55s0.19-0.51,0.19-0.81c0-0.31-0.06-0.58-0.19-0.82c-0.13-0.23-0.31-0.42-0.53-0.55
				c-0.23-0.13-0.48-0.19-0.76-0.19c-0.29,0-0.54,0.07-0.76,0.19c-0.22,0.13-0.4,0.31-0.53,0.55c-0.13,0.24-0.19,0.51-0.19,0.82
				c0,0.3,0.06,0.57,0.19,0.81c0.13,0.24,0.31,0.42,0.53,0.55S77.33,95.03,77.62,95.03z"/>
			<path class="st18" d="M82.62,95.23c-0.34,0-0.65-0.08-0.91-0.23c-0.26-0.15-0.47-0.36-0.62-0.63c-0.15-0.27-0.23-0.57-0.23-0.91
				c0-0.34,0.07-0.65,0.21-0.91c0.14-0.26,0.34-0.47,0.58-0.62c0.25-0.15,0.53-0.23,0.84-0.23c0.31,0,0.59,0.07,0.83,0.22
				s0.44,0.35,0.58,0.61c0.14,0.26,0.21,0.56,0.21,0.9c0,0.01,0,0.02,0,0.03c0,0.01,0,0.02,0,0.03H81v-0.18h3l-0.09,0.11
				c0-0.29-0.06-0.55-0.18-0.78c-0.12-0.23-0.29-0.41-0.51-0.54c-0.21-0.13-0.46-0.2-0.73-0.2c-0.27,0-0.52,0.07-0.73,0.2
				c-0.21,0.13-0.38,0.31-0.51,0.54c-0.12,0.23-0.18,0.49-0.18,0.79v0.04c0,0.3,0.07,0.57,0.2,0.81c0.13,0.23,0.32,0.42,0.55,0.55
				c0.23,0.13,0.5,0.2,0.8,0.2c0.23,0,0.44-0.04,0.65-0.13c0.2-0.08,0.37-0.21,0.51-0.39l0.14,0.15c-0.16,0.19-0.35,0.33-0.57,0.43
				C83.11,95.18,82.87,95.23,82.62,95.23z"/>
			<path class="st18" d="M86.86,95.23c-0.26,0-0.49-0.04-0.67-0.12s-0.33-0.2-0.43-0.35c-0.1-0.15-0.15-0.32-0.15-0.51
				c0-0.17,0.04-0.33,0.12-0.47c0.08-0.14,0.21-0.26,0.4-0.35c0.19-0.09,0.43-0.13,0.75-0.13h1.35v0.18h-1.35
				c-0.38,0-0.65,0.07-0.81,0.21c-0.16,0.14-0.24,0.32-0.24,0.54c0,0.25,0.09,0.44,0.27,0.59c0.18,0.15,0.44,0.22,0.77,0.22
				c0.32,0,0.59-0.07,0.8-0.22c0.21-0.15,0.37-0.35,0.48-0.62l0.07,0.15c-0.09,0.26-0.25,0.48-0.48,0.64S87.21,95.23,86.86,95.23z
				 M88.15,95.21V94.4l-0.01-0.12v-1.32c0-0.34-0.09-0.61-0.27-0.79c-0.18-0.18-0.45-0.27-0.8-0.27c-0.25,0-0.49,0.04-0.7,0.13
				c-0.21,0.09-0.39,0.2-0.54,0.34l-0.12-0.16c0.17-0.16,0.37-0.28,0.61-0.37c0.24-0.09,0.49-0.14,0.76-0.14
				c0.42,0,0.73,0.11,0.96,0.32c0.22,0.21,0.33,0.52,0.33,0.94v2.25H88.15z"/>
			<path class="st18" d="M90.04,91.92v-0.19h2.03v0.19H90.04z M91.59,95.23c-0.29,0-0.51-0.08-0.66-0.24
				c-0.15-0.16-0.23-0.38-0.23-0.65v-3.37h0.22v3.34c0,0.24,0.06,0.42,0.17,0.54s0.29,0.19,0.51,0.19c0.23,0,0.42-0.07,0.56-0.21
				l0.11,0.16c-0.08,0.08-0.19,0.14-0.32,0.18C91.84,95.21,91.72,95.23,91.59,95.23z"/>
			<path class="st18" d="M94.94,95.23c-0.29,0-0.55-0.04-0.8-0.13c-0.25-0.09-0.44-0.2-0.57-0.33l0.11-0.17
				c0.13,0.12,0.31,0.22,0.53,0.31s0.47,0.13,0.74,0.13c0.39,0,0.67-0.07,0.84-0.2c0.17-0.13,0.26-0.31,0.26-0.52
				c0-0.16-0.04-0.28-0.13-0.37c-0.08-0.09-0.2-0.16-0.34-0.21c-0.14-0.05-0.29-0.09-0.46-0.12c-0.17-0.03-0.34-0.06-0.51-0.1
				c-0.17-0.04-0.32-0.09-0.46-0.15c-0.14-0.06-0.25-0.16-0.34-0.27s-0.13-0.27-0.13-0.46c0-0.17,0.05-0.32,0.14-0.46
				c0.09-0.14,0.23-0.25,0.42-0.34c0.19-0.09,0.43-0.13,0.72-0.13c0.21,0,0.43,0.03,0.65,0.1s0.39,0.15,0.52,0.26l-0.11,0.17
				c-0.14-0.11-0.3-0.19-0.49-0.25s-0.38-0.08-0.57-0.08c-0.36,0-0.63,0.07-0.79,0.21s-0.25,0.31-0.25,0.51
				c0,0.16,0.04,0.29,0.13,0.39c0.08,0.1,0.2,0.17,0.34,0.22c0.14,0.05,0.29,0.09,0.46,0.12c0.17,0.03,0.34,0.07,0.5,0.1
				c0.17,0.04,0.32,0.08,0.46,0.15c0.14,0.06,0.25,0.15,0.34,0.26c0.08,0.11,0.13,0.26,0.13,0.46c0,0.18-0.05,0.34-0.15,0.48
				c-0.1,0.14-0.25,0.25-0.44,0.33C95.48,95.19,95.23,95.23,94.94,95.23z"/>
			<path class="st18" d="M97.97,95.23c-0.06,0-0.11-0.02-0.15-0.06c-0.04-0.04-0.07-0.09-0.07-0.16s0.02-0.12,0.07-0.16
				c0.04-0.04,0.1-0.06,0.15-0.06c0.06,0,0.12,0.02,0.16,0.06c0.04,0.04,0.06,0.1,0.06,0.16s-0.02,0.12-0.06,0.16
				C98.08,95.21,98.03,95.23,97.97,95.23z"/>
		</g>
	</g>
</g>
</svg>
