<svg id="Layer_1" data-name="Layer 1" xmlns="http://www.w3.org/2000/svg" viewBox="0 0 80 80"><defs><style>.cls-1{fill:#fff;}</style></defs><path class="cls-1" d="M36.47,51.44V11.84a8.63,8.63,0,0,1,0-.88,2.68,2.68,0,0,1,2.66-2.6,2.8,2.8,0,0,1,2.89,2.47,14.52,14.52,0,0,1,.13,2.08A6.45,6.45,0,0,0,44,17.52a36.2,36.2,0,0,0,6.85,5.55,27.22,27.22,0,0,1,6,5.07,19.9,19.9,0,0,1,4.87,15.49,10.65,10.65,0,0,1-1,3.33c-.57,1.17-1.78,1.11-2.47,0a4.65,4.65,0,0,1-.44-.86c-2-5.5-6.11-9.07-11.2-11.63-1-.5-2-.93-3.16-1.45V34c0,8.1-.11,16.2,0,24.3.09,5-2.2,8.52-6.29,11a14.63,14.63,0,0,1-13,1.52c-5.57-2-7.53-7.73-4.41-12.78,2.46-4,6.21-6,10.71-6.8A14.8,14.8,0,0,1,36.47,51.44Z"/></svg>